<?xml version="1.0" encoding="UTF-8"?>
<svg xmlns="http://www.w3.org/2000/svg" version="1.1" width="1500" height="800">
<path d="M0 0 C428.01 0 856.02 0 1297 0 C1306 110 1306 110 1306 122 C877.99 122 449.98 122 9 122 C0 12 0 12 0 0 Z " fill="#15B9D9" transform="translate(72,588)"/>
<path d="M0 0 C140.14964393 0 140.14964393 0 162.5625 20.9375 C179.44250557 38.5158225 189.57585347 62.1641622 189.21484375 86.4453125 C188.49677666 107.39859951 180.00578255 123.961905 164.9609375 138.4296875 C152.95389855 148.85268437 138.12630542 154.6369097 122.36328125 156.15625 C121.1076236 156.2787764 121.1076236 156.2787764 119.82659912 156.40377808 C106.5073866 157.54224452 93.10357118 157.20741144 79.75 157.125 C70.2625 157.08375 60.775 157.0425 51 157 C51 188.35 51 219.7 51 252 C36.15 252 21.3 252 6 252 C6 248.7 6 245.4 6 242 C4.02 242 2.04 242 0 242 C0 162.14 0 82.28 0 0 Z M51 48 C51 67.8 51 87.6 51 108 C59.9925 108.0825 68.985 108.165 78.25 108.25 C82.47151855 108.30462402 82.47151855 108.30462402 86.77832031 108.36035156 C89.04491415 108.3720497 91.31151649 108.38223885 93.578125 108.390625 C94.72587402 108.41108887 95.87362305 108.43155273 97.05615234 108.45263672 C108.27715613 108.45741365 118.75177844 105.989888 127 98 C134.9648519 89.4182803 136.57326795 81.00831595 136.2734375 69.46484375 C135.86236609 64.25598179 135.1920105 61.15599154 131.3359375 57.36328125 C115.89961282 44.66367549 91.76755003 47.86286639 73.125 47.9375 C62.173125 47.9684375 62.173125 47.9684375 51 48 Z " fill="#15B9D9" transform="translate(244,313)"/>
<path d="M0 0 C114.88243448 0 114.88243448 0 132.5625 15.6875 C147.34455764 31.64664742 154.04217653 50.05946881 153.3828125 71.51171875 C152.6674075 84.72871369 147.29333798 96.78511072 137.59082031 105.9230957 C134.47606049 108.42001069 131.20256627 110.31183252 127.71875 112.2421875 C127.07131836 112.60626709 126.42388672 112.97034668 125.75683594 113.34545898 C124.17376369 114.23484182 122.58722942 115.11805763 121 116 C122.66957224 120.31182387 124.34102725 124.62291294 126.01409912 128.93338013 C126.62925762 130.51832101 127.24420748 132.1033429 127.85894775 133.68844604 C131.76760075 143.76285614 135.71425955 153.8210924 139.71484375 163.859375 C140.29869087 165.32657234 140.29869087 165.32657234 140.89433289 166.82341003 C142.81147742 171.64097898 144.73356656 176.45646651 146.66381836 181.26879883 C147.36725988 183.03457431 148.07047754 184.800439 148.7734375 186.56640625 C149.10089462 187.37732727 149.42835175 188.18824829 149.76573181 189.02374268 C152 194.65924494 152 194.65924494 152 198 C140.12 198 128.24 198 116 198 C114.68 195.03 113.36 192.06 112 189 C111.33266846 188.34338379 110.66533691 187.68676758 109.9777832 187.01025391 C106.8692885 183.85072479 105.82387541 179.96088937 104.35546875 175.8359375 C104.02259354 174.92985748 103.68971832 174.02377747 103.34675598 173.09024048 C102.28318713 170.18886332 101.23487541 167.28225731 100.1875 164.375 C99.15133294 161.52911735 98.11200339 158.68440647 97.072052 155.83990479 C96.38794903 153.96760374 95.70554528 152.09468094 95.02487183 150.22113037 C92.48458956 143.24878313 89.8290267 136.32700023 87.0723114 129.43734741 C85 124.20932267 85 124.20932267 85 122 C70.48 122 55.96 122 41 122 C41 147.08 41 172.16 41 198 C29.45 198 17.9 198 6 198 C6 194.7 6 191.4 6 188 C4.02 188 2.04 188 0 188 C0 125.96 0 63.92 0 0 Z M41 38 C41 53.18 41 68.36 41 84 C74.02206039 86.47289657 74.02206039 86.47289657 103.828125 75.36328125 C110.46365237 68.19626746 111.33956557 61.84247136 111.49609375 52.3046875 C110.89776515 48.31897102 109.88143087 46.78441299 107 44 C104.38598993 42.37803056 104.38598993 42.37803056 101.4375 41.25 C100.48746094 40.84265625 99.53742188 40.4353125 98.55859375 40.015625 C90.4718934 37.70767539 81.87715726 37.85331976 73.51953125 37.90234375 C72.6853064 37.90335083 71.85108154 37.90435791 70.99157715 37.90539551 C67.9318704 37.9105524 64.87218353 37.92451235 61.8125 37.9375 C51.5103125 37.9684375 51.5103125 37.9684375 41 38 Z " fill="#15B9D9" transform="translate(1191,367)"/>
<path d="M0 0 C12.54 0 25.08 0 38 0 C44.11399769 9.7823963 50.14946 19.53381005 55.9375 29.5 C57.41247372 32.02957466 58.88967618 34.55784436 60.3671875 37.0859375 C60.74442459 37.73174774 61.12166168 38.37755798 61.5103302 39.04293823 C65.82592389 46.42446743 70.19252335 53.77557951 74.5625 61.125 C75.36466689 62.47444532 76.1668316 63.82389193 76.96899414 65.17333984 C78.15852469 67.17427041 79.34812886 69.17515707 80.53791809 71.17593384 C84.48980938 77.82195225 88.43338217 84.47288475 92.375 91.125 C92.95580322 92.10484863 93.53660645 93.08469727 94.13500977 94.09423828 C100.43329297 104.72362666 106.71450756 115.3630128 113 126 C113.33 84.42 113.66 42.84 114 0 C123.24 0 132.48 0 142 0 C142 3.3 142 6.6 142 10 C143.98 10 145.96 10 148 10 C148 72.04 148 134.08 148 198 C136.78 198 125.56 198 114 198 C107.26163328 187.89244992 107.26163328 187.89244992 104.29296875 182.76171875 C103.63256592 181.62605469 102.97216309 180.49039063 102.29174805 179.3203125 C101.94929047 178.72895508 101.60683289 178.13759766 101.2539978 177.52832031 C95.02362651 166.77443597 88.67043263 156.10332068 82.1875 145.5 C76.65231004 136.4422166 71.25529333 127.32033891 66.02514648 118.08251953 C62.99885514 112.73758489 59.90908621 107.44149055 56.72827148 102.18725586 C54.11392336 97.86548288 51.52921349 93.52667332 48.95703125 89.1796875 C48.59747345 88.57208588 48.23791565 87.96448425 47.86746216 87.33847046 C46.4021638 84.86163646 44.9372933 82.38455165 43.47375488 79.90667725 C42.44282333 78.16133857 41.41088277 76.41659602 40.37890625 74.671875 C39.7763501 73.6519043 39.17379395 72.63193359 38.55297852 71.58105469 C37.41600051 69.69139402 36.22330403 67.83495604 35 66 C34.99576806 66.67937087 34.99153612 67.35874174 34.98717594 68.05869961 C34.88400918 84.56589931 34.7753927 101.07305315 34.66066074 117.58017635 C34.60531029 125.56279452 34.55182536 133.54541716 34.50268555 141.52807617 C34.45986597 148.48326603 34.4135937 155.43842273 34.36312145 162.39356142 C34.33650249 166.07849979 34.31164906 169.7634315 34.29092598 173.44840813 C34.26776498 177.55541765 34.23689778 181.66233366 34.20532227 185.76928711 C34.1995668 186.99998932 34.19381134 188.23069153 34.18788147 189.49868774 C34.17319824 191.16675224 34.17319824 191.16675224 34.15821838 192.86851501 C34.15176583 193.84100661 34.14531328 194.81349821 34.1386652 195.81545925 C34 198 34 198 33 199 C31.00035018 199.08758003 28.9976389 199.10696576 26.99609375 199.09765625 C25.78115234 199.09443359 24.56621094 199.09121094 23.31445312 199.08789062 C22.03505859 199.07951172 20.75566406 199.07113281 19.4375 199.0625 C18.15423828 199.05798828 16.87097656 199.05347656 15.54882812 199.04882812 C12.36583978 199.03699545 9.18294238 199.02051068 6 199 C6 195.7 6 192.4 6 189 C4.02 189 2.04 189 0 189 C0 126.63 0 64.26 0 0 Z " fill="#15B9D9" transform="translate(709,367)"/>
<path d="M0 0 C1.36205629 1.37493459 2.69083048 2.78259993 4.01782227 4.19140625 C5.07163086 5.30902344 5.07163086 5.30902344 6.14672852 6.44921875 C28.62886795 32.5194168 37.03794803 66.46994462 35.01782227 100.19140625 C33.2225156 121.59223388 27.2873233 142.68355212 13.01782227 159.19140625 C12.14577148 160.29548828 12.14577148 160.29548828 11.25610352 161.421875 C0.30244907 174.76374761 -15.19744353 182.25534133 -31.98217773 185.19140625 C-36.6170676 185.60125861 -41.20608696 185.66967432 -45.85717773 185.62890625 C-47.0844458 185.62060791 -48.31171387 185.61230957 -49.57617188 185.60375977 C-68.67173812 185.24809899 -84.54569594 179.1085087 -97.98217773 165.19140625 C-103.81861112 159.10313526 -108.40354465 152.80761472 -112.60717773 145.50390625 C-113.16912842 144.53565918 -113.7310791 143.56741211 -114.31005859 142.56982422 C-131.85620592 111.90432158 -135.7028588 76.15021667 -126.44091797 42.04321289 C-122.24955851 27.84938706 -114.99616446 15.05843629 -104.98217773 4.19140625 C-104.40983398 3.53914063 -103.83749023 2.886875 -103.24780273 2.21484375 C-98.54447118 -2.86923369 -92.93202517 -6.33423028 -86.98217773 -9.80859375 C-86.33635742 -10.20046875 -85.69053711 -10.59234375 -85.02514648 -10.99609375 C-58.95090066 -25.53859251 -21.33454713 -20.63522661 0 0 Z M-63.98217773 24.19140625 C-64.6847168 24.60390625 -65.38725586 25.01640625 -66.11108398 25.44140625 C-78.3562838 33.62036324 -82.82261199 47.72753028 -85.59545898 61.51171875 C-87.29007977 70.48573253 -87.49054264 79.33186342 -87.41967773 88.44140625 C-87.41730103 89.24790619 -87.41492432 90.05440613 -87.41247559 90.88534546 C-87.39432312 115.8993481 -87.39432312 115.8993481 -76.73217773 137.87890625 C-66.91665263 146.13287054 -57.60409853 148.05949049 -44.99243164 147.38671875 C-34.72144339 146.38880879 -25.97949809 139.17965342 -19.57983398 131.51171875 C-11.27965274 119.4571768 -8.8669902 103.46880795 -8.77905273 89.1328125 C-8.77335266 88.38539291 -8.76765259 87.63797333 -8.76177979 86.86790466 C-8.75239394 85.29224024 -8.74582158 83.71655675 -8.74194336 82.14086914 C-8.7323287 79.79080543 -8.7012824 77.44165284 -8.66967773 75.09179688 C-8.56791883 60.57352598 -9.08167901 41.04288388 -18.57983398 29.19921875 C-28.23614216 20.35676798 -39.32155129 19.49140399 -51.84155273 20.01220703 C-56.40895884 20.3945606 -60.08105782 21.86671654 -63.98217773 24.19140625 Z " fill="#15B9D9" transform="translate(649.982177734375,382.80859375)"/>
<path d="M0 0 C39.93 0 79.86 0 121 0 C121 3.3 121 6.6 121 10 C122.98 10 124.96 10 127 10 C127 19.9 127 29.8 127 40 C98.62 40 70.24 40 41 40 C41 53.2 41 66.4 41 80 C61.79 80 82.58 80 104 80 C104 83.3 104 86.6 104 90 C105.98 90 107.96 90 110 90 C110 99.24 110 108.48 110 118 C87.23 118 64.46 118 41 118 C41 131.53 41 145.06 41 159 C67.73 159 94.46 159 122 159 C122 162.3 122 165.6 122 169 C123.98 169 125.96 169 128 169 C128 178.57 128 188.14 128 198 C87.74 198 47.48 198 6 198 C6 194.7 6 191.4 6 188 C4.02 188 2.04 188 0 188 C0 125.96 0 63.92 0 0 Z " fill="#15B9D9" transform="translate(1041,367)"/>
<path d="M0 0 C39.93 0 79.86 0 121 0 C121 3.3 121 6.6 121 10 C122.98 10 124.96 10 127 10 C127 19.9 127 29.8 127 40 C98.62 40 70.24 40 41 40 C41 53.2 41 66.4 41 80 C61.79 80 82.58 80 104 80 C104 83.3 104 86.6 104 90 C105.98 90 107.96 90 110 90 C110 99.24 110 108.48 110 118 C87.23 118 64.46 118 41 118 C41 131.53 41 145.06 41 159 C67.73 159 94.46 159 122 159 C122 162.3 122 165.6 122 169 C123.98 169 125.96 169 128 169 C128 178.57 128 188.14 128 198 C87.74 198 47.48 198 6 198 C6 194.7 6 191.4 6 188 C4.02 188 2.04 188 0 188 C0 125.96 0 63.92 0 0 Z " fill="#15B9D9" transform="translate(891,367)"/>
<path d="M0 0 C13.54689204 10.65356715 20.71278283 23.25345547 24.6875 39.875 C26.45706497 57.57064967 21.99072887 74.00121049 11.25 88.25 C1.85896398 99.34849712 -11.43272431 107.91403508 -26 110 C-44.93640634 111.54694132 -60.84571335 108.08238915 -75.8125 95.921875 C-85.84945246 87.10369534 -95.1617722 73.73603585 -96.23144531 60.03564453 C-96.37805787 56.479521 -96.42055228 52.9340211 -96.4375 49.375 C-96.47037109 48.18003906 -96.50324219 46.98507812 -96.53710938 45.75390625 C-96.6298081 30.19737439 -89.91887064 17.02283896 -79.375 5.8125 C-57.27547247 -15.18538945 -24.93637217 -17.32924359 0 0 Z " fill="#15B9D9" transform="translate(157,387)"/>
<path d="M0 0 C11.55 0 23.1 0 35 0 C35 3.3 35 6.6 35 10 C36.98 10 38.96 10 41 10 C41 72.37 41 134.74 41 199 C29.45 199 17.9 199 6 199 C6 195.7 6 192.4 6 189 C4.02 189 2.04 189 0 189 C0 126.63 0 64.26 0 0 Z " fill="#15B9D9" transform="translate(455,367)"/>
<path d="M0 0 C1.09538086 -0.01836914 1.09538086 -0.01836914 2.21289062 -0.03710938 C14.64368746 -0.07014072 25.55587899 4.72880059 34.625 13.1875 C44.93641584 24.0659691 48.23249028 35.91200886 48.02734375 50.625 C47.60610901 63.37192938 42.01268077 74.4491757 32.8125 83.1875 C20.46883295 92.97652533 7.29422658 95.56887855 -8.1875 94.1875 C-20.71609548 91.43659121 -31.030374 83.67313591 -38.25 73.28125 C-45.870767 61.11260592 -47.30331631 47.82881144 -44.5234375 33.84765625 C-43.62185816 31.11547887 -42.54905309 28.72015083 -41.1875 26.1875 C-40.713125 25.26839844 -40.23875 24.34929688 -39.75 23.40234375 C-31.46088826 8.91632396 -16.65842416 0.01432367 0 0 Z " fill="#FDFBFB" transform="translate(462.1875,602.8125)"/>
<path d="M0 0 C47.4695122 0 47.4695122 0 59.03515625 10.921875 C70.25139357 23.20972735 71.87717502 36.97771372 71.46875 53.15234375 C70.83261192 64.19110657 66.27720483 72.94213843 58.5703125 80.87109375 C41.53145389 94.98382618 22.1045582 90 0 90 C0 60.3 0 30.6 0 0 Z " fill="#FCFAFA" transform="translate(1280,605)"/>
<path d="M0 0 C47.4695122 0 47.4695122 0 59.03515625 10.921875 C70.25139357 23.20972735 71.87717502 36.97771372 71.46875 53.15234375 C70.83261192 64.19110657 66.27720483 72.94213843 58.5703125 80.87109375 C41.53145389 94.98382618 22.1045582 90 0 90 C0 60.3 0 30.6 0 0 Z " fill="#FCFAFA" transform="translate(526,605)"/>
<path d="M0 0 C5.94 0 11.88 0 18 0 C19.88459752 5.50922069 21.76874732 11.01859086 23.65185547 16.52832031 C24.28963049 18.39396426 24.92764272 20.25952713 25.56591797 22.125 C29.76519691 34.39879797 33.91824101 46.68659911 38 59 C40.87803811 52.01683347 43.4487463 44.9705869 45.85546875 37.8125 C46.20257401 36.78817871 46.54967926 35.76385742 46.90730286 34.70849609 C48.00328376 31.47319741 49.09565211 28.23669559 50.1875 25 C51.29052233 21.73490013 52.39433801 18.47007437 53.49983215 15.20581055 C54.18471884 13.18305903 54.86810705 11.15979941 55.54985046 9.13598633 C55.8571962 8.22743896 56.16454193 7.3188916 56.48120117 6.3828125 C56.75115402 5.58246582 57.02110687 4.78211914 57.29924011 3.95751953 C58 2 58 2 59 0 C64.61 0 70.22 0 76 0 C78.24965154 7.87378039 78.24965154 7.87378039 78.88208008 11.84838867 C79.02611771 12.73941284 79.17015533 13.63043701 79.31855774 14.54846191 C79.467379 15.49539917 79.61620026 16.44233643 79.76953125 17.41796875 C79.93096115 18.42106079 80.09239105 19.42415283 80.25871277 20.4576416 C80.78020905 23.70036676 81.2963158 26.94392546 81.8125 30.1875 C82.5243277 34.62548883 83.23974287 39.06289067 83.95703125 43.5 C84.13251495 44.58641281 84.30799866 45.67282562 84.48880005 46.79216003 C86.07358842 56.55321172 87.78711487 66.28650229 89.62817383 76.00268555 C89.81275146 76.9956665 89.9973291 77.98864746 90.1875 79.01171875 C90.34605469 79.84147217 90.50460938 80.67122559 90.66796875 81.52612305 C91 84 91 84 91 90 C85.39 90 79.78 90 74 90 C71.03 72.51 68.06 55.02 65 37 C61.88076735 43.87483516 61.88076735 43.87483516 59.27661133 50.84545898 C58.86147026 52.09606361 58.86147026 52.09606361 58.4379425 53.37193298 C58.15549179 54.23790604 57.87304108 55.10387909 57.58203125 55.99609375 C57.27931808 56.91084976 56.97660492 57.82560577 56.66471863 58.76808167 C55.70964815 61.65648019 54.76076132 64.54685967 53.8125 67.4375 C52.85244126 70.35276222 51.89107964 73.26758603 50.92814636 76.18190002 C50.33192244 77.98753324 49.73755013 79.79377914 49.1452179 81.60069275 C48.87791367 82.41236404 48.61060944 83.22403534 48.33520508 84.06030273 C48.10078201 84.77484116 47.86635895 85.48937958 47.62483215 86.22557068 C47 88 47 88 46 90 C41.05 90 36.1 90 31 90 C28.27810363 83.34126118 25.79682171 76.66710197 23.546875 69.8359375 C23.24179016 68.91785309 22.93670532 67.99976868 22.62237549 67.05386353 C21.66205975 64.16184736 20.70595692 61.26845951 19.75 58.375 C19.09402985 56.39704258 18.43778231 54.41917714 17.78125 52.44140625 C16.18429584 47.62865992 14.59111466 42.81467988 13 38 C11.4140511 40.88178048 10.59798848 43.40675643 10.05444336 46.64501953 C9.81926247 48.01631516 9.81926247 48.01631516 9.57933044 49.41531372 C9.41779984 50.39458832 9.25626923 51.37386292 9.08984375 52.3828125 C8.91747696 53.39342743 8.74511017 54.40404236 8.56752014 55.44528198 C8.01815848 58.67086802 7.4772886 61.89779928 6.9375 65.125 C6.39303814 68.35913706 5.84674739 71.59293785 5.29676819 74.82614136 C4.9549413 76.83769934 4.61649998 78.84983606 4.28172302 80.86257935 C4.12808792 81.77047211 3.97445282 82.67836487 3.81616211 83.61376953 C3.61536293 84.81478806 3.61536293 84.81478806 3.4105072 86.04006958 C3 88 3 88 2 90 C-3.28 90 -8.56 90 -14 90 C-14.11937381 84.07267325 -13.80521978 78.62985199 -12.71484375 72.8125 C-12.57829376 72.04768311 -12.44174377 71.28286621 -12.30105591 70.49487305 C-11.85344173 67.99528358 -11.39538286 65.49772675 -10.9375 63 C-10.46094805 60.35117032 -9.9872399 57.70184122 -9.51359558 55.05249023 C-9.18458211 53.21330054 -8.85466478 51.37427233 -8.52388 49.53540039 C-6.63740284 39.03488239 -4.84914585 28.51787706 -3.0625 18 C-2.75326082 16.18357894 -2.44393689 14.3671723 -2.13452148 12.55078125 C-1.42190994 8.36737393 -0.71096769 4.18368829 0 0 Z " fill="#FCFAFA" transform="translate(114,605)"/>
<path d="M0 0 C1.18613892 0.00785522 1.18613892 0.00785522 2.39624023 0.01586914 C3.67724609 0.02070312 3.67724609 0.02070312 4.98413086 0.02563477 C5.88196289 0.03401367 6.77979492 0.04239258 7.70483398 0.05102539 C8.6065332 0.05553711 9.50823242 0.06004883 10.43725586 0.06469727 C12.67234712 0.07652315 14.90730835 0.09300319 17.14233398 0.11352539 C17.37655563 0.72706879 17.61077728 1.34061218 17.85209656 1.9727478 C19.88536158 7.29884047 21.91871235 12.62490038 23.95214844 17.95092773 C25.63332087 22.35431891 27.31432871 26.75777279 28.99507809 31.16132545 C33.46689351 42.87722688 37.93928678 54.59288568 42.43139648 66.30102539 C43.04379463 67.89818873 43.65618126 69.49535648 44.26855469 71.0925293 C45.3720738 73.97049834 46.47770678 76.84764348 47.58447266 79.72436523 C48.06868493 80.98686656 48.55282134 82.249397 49.03686523 83.51196289 C49.44783447 84.5810791 49.85880371 85.65019531 50.28222656 86.75170898 C51.14233398 89.11352539 51.14233398 89.11352539 51.14233398 90.11352539 C44.87233398 90.11352539 38.60233398 90.11352539 32.14233398 90.11352539 C29.83233398 84.17352539 27.52233398 78.23352539 25.14233398 72.11352539 C13.26233398 71.78352539 1.38233398 71.45352539 -10.85766602 71.11352539 C-11.84766602 74.41352539 -12.83766602 77.71352539 -13.85766602 81.11352539 C-15.07643304 84.18693789 -16.45549171 87.11577343 -17.85766602 90.11352539 C-23.79766602 90.11352539 -29.73766602 90.11352539 -35.85766602 90.11352539 C-35.09359799 86.29318526 -34.25049396 83.22285935 -32.88330078 79.63427734 C-32.47519669 78.55737137 -32.06709259 77.48046539 -31.6466217 76.3709259 C-31.20193039 75.20961655 -30.75723907 74.04830719 -30.29907227 72.85180664 C-29.83589096 71.63317429 -29.37270966 70.41454193 -28.89549255 69.15898132 C-27.65833695 65.90434856 -26.41640381 62.65155879 -25.17352295 59.39910889 C-23.94866459 56.19113707 -22.72862449 52.98133462 -21.50805664 49.77172852 C-19.34732807 44.09231366 -17.18039909 38.41529311 -15.00908852 32.73991585 C-13.55675276 28.94357333 -12.1075168 25.14606707 -10.66065693 21.34763432 C-9.50847238 18.32474774 -8.3527197 15.30322558 -7.19750977 12.28149414 C-6.77361465 11.16688309 -6.34971954 10.05227203 -5.91297913 8.90388489 C-5.33053688 7.38380074 -5.33053688 7.38380074 -4.73632812 5.83300781 C-4.39621201 4.94191818 -4.05609589 4.05082855 -3.70567322 3.13273621 C-2.45297507 0.14990582 -2.45297507 0.14990582 0 0 Z " fill="#FDFBFB" transform="translate(773.857666015625,604.886474609375)"/>
<path d="M0 0 C5.94 0 11.88 0 18 0 C18 11.22 18 22.44 18 34 C27.57 34 37.14 34 47 34 C47 22.78 47 11.56 47 0 C52.94 0 58.88 0 65 0 C65 29.7 65 59.4 65 90 C59.06 90 53.12 90 47 90 C47 77.13 47 64.26 47 51 C37.43 51 27.86 51 18 51 C18 63.87 18 76.74 18 90 C12.06 90 6.12 90 0 90 C0 60.3 0 30.6 0 0 Z " fill="#FCFAFA" transform="translate(336,605)"/>
<path d="M0 0 C1.88198457 1.38289474 3.62262282 2.82603404 5.37109375 4.37109375 C6.098125 4.88285156 6.82515625 5.39460937 7.57421875 5.921875 C8.46367188 6.63923828 8.46367188 6.63923828 9.37109375 7.37109375 C9.37109375 8.03109375 9.37109375 8.69109375 9.37109375 9.37109375 C10.03109375 9.37109375 10.69109375 9.37109375 11.37109375 9.37109375 C9.94479067 12.70158497 8.22094979 14.68848312 5.49609375 17.05859375 C4.81804687 17.66058594 4.14 18.26257813 3.44140625 18.8828125 C1.30279479 20.42019168 -0.00025504 21.20150335 -2.62890625 21.37109375 C-4.19921875 20.296875 -4.19921875 20.296875 -5.75390625 18.68359375 C-12.6100171 12.31614739 -21.81807711 10.02567041 -30.9765625 10.16015625 C-38.68152201 10.77292181 -45.11141628 13.99816684 -50.62890625 19.37109375 C-56.49463525 26.96378865 -58.39274588 33.85440329 -57.62890625 43.37109375 C-56.45610651 51.82454137 -53.33115862 57.96206122 -46.62890625 63.37109375 C-43.38624914 65.1027494 -40.14544128 66.3217547 -36.62890625 67.37109375 C-35.63890625 67.70109375 -34.64890625 68.03109375 -33.62890625 68.37109375 C-22.37829665 69.44454641 -13.47736948 66.21721078 -4.62890625 59.37109375 C-3.96890625 58.71109375 -3.30890625 58.05109375 -2.62890625 57.37109375 C1.34259311 57.60070934 3.45803459 59.99325991 6.18359375 62.68359375 C6.99441406 63.46347656 7.80523438 64.24335937 8.640625 65.046875 C10.37109375 67.37109375 10.37109375 67.37109375 10.3984375 69.421875 C6.00155385 77.7642512 -5.3383122 82.12450611 -13.62890625 85.37109375 C-26.20497498 89.05869133 -41.72615543 87.19341711 -53.06640625 81.05078125 C-63.9874426 74.29892432 -71.48369878 64.85197164 -75.19824219 52.47387695 C-78.07741335 38.41588304 -76.14407534 24.06204027 -68.37890625 12.12109375 C-52.12477212 -9.59690365 -22.73214835 -14.08514987 0 0 Z " fill="#FCFAFA" transform="translate(719.62890625,610.62890625)"/>
<path d="M0 0 C37 0 37 0 46.375 6.25 C52.31143272 12.46911999 54.38528212 19.5528935 54.2734375 28.01953125 C53.59493637 35.41519359 50.5676404 41.57966901 45.0234375 46.52734375 C36.31852251 52.86277416 29.24338429 52 18 52 C18 64.54 18 77.08 18 90 C12.06 90 6.12 90 0 90 C0 60.3 0 30.6 0 0 Z " fill="#FCFAFA" transform="translate(927,605)"/>
<path d="M0 0 C16.17 0 32.34 0 49 0 C49 5.61 49 11.22 49 17 C38.44 17 27.88 17 17 17 C17 21.95 17 26.9 17 32 C27.56 32 38.12 32 49 32 C49 37.61 49 43.22 49 49 C38.44 49 27.88 49 17 49 C17 56.92 17 64.84 17 73 C27.56 73 38.12 73 49 73 C49 78.61 49 84.22 49 90 C32.83 90 16.66 90 0 90 C0 60.3 0 30.6 0 0 Z " fill="#FEFDFD" transform="translate(218,605)"/>
<path d="M0 0 C7.89223969 6.85982461 10.34189354 21.10463003 11.16845703 31.02099609 C12.3794149 52.65103429 6.93699756 71.40560341 -7.50390625 87.8515625 C-20.49371359 101.57878249 -36.87574515 109.34794831 -55.63671875 111.15625 C-56.8923764 111.2787764 -56.8923764 111.2787764 -58.17340088 111.40377808 C-71.4926134 112.54224452 -84.89642882 112.20741144 -98.25 112.125 C-107.7375 112.08375 -117.225 112.0425 -127 112 C-127 143.35 -127 174.7 -127 207 C-141.85 207 -156.7 207 -172 207 C-172 203.7 -172 200.4 -172 197 C-159.46 197 -146.92 197 -134 197 C-134 165.32 -134 133.64 -134 101 C-98 100.75 -98 100.75 -86.734375 100.70214844 C-83.3310269 100.66883061 -83.3310269 100.66883061 -79.92773438 100.63043213 C-78.44015568 100.61604831 -76.95249187 100.60905549 -75.46484375 100.60845947 C-55.23009875 100.58652566 -37.03271654 95.86576018 -21 83 C-20.2678125 82.4328125 -19.535625 81.865625 -18.78125 81.28125 C-4.9819355 70.02950125 2.14864916 52.34098617 4 35 C4.66612242 24.49134466 3.3646535 15.16923525 1 5 C0.66026385 3.3346267 0.32424752 1.6684581 0 0 Z " fill="#070505" transform="translate(422,358)"/>
<path d="M0 0 C5.94 0 11.88 0 18 0 C18.79434448 2.30000977 18.79434448 2.30000977 19.60473633 4.64648438 C21.57731098 10.35713684 23.55126819 16.0673106 25.52563477 21.77734375 C26.3785489 24.24466204 27.2310924 26.71210849 28.08325195 29.1796875 C29.31102699 32.73471622 30.54015187 36.28927581 31.76953125 39.84375 C32.14777542 40.93989624 32.52601959 42.03604248 32.91572571 43.16540527 C34.86875069 48.80775049 36.87256169 54.42099166 39 60 C41.26290685 57.73709315 41.7872806 56.20502466 42.83178711 53.20239258 C43.18232651 52.20407913 43.53286591 51.20576569 43.89402771 50.17720032 C44.268022 49.09391953 44.6420163 48.01063873 45.02734375 46.89453125 C45.41692764 45.78196457 45.80651154 44.66939789 46.207901 43.52311707 C47.45654172 39.95478451 48.69744066 36.38382288 49.9375 32.8125 C51.17511558 29.25943873 52.41439312 25.7069744 53.65638733 22.15544128 C54.42941356 19.94378632 55.19974619 17.73118754 55.96702576 15.51753235 C56.32071732 14.5034581 56.67440887 13.48938385 57.03881836 12.44458008 C57.34589218 11.56014725 57.652966 10.67571442 57.96934509 9.76448059 C59.19942306 6.46509624 60.61292133 3.2365169 62 0 C67.94 0 73.88 0 80 0 C77.87378543 7.30508066 75.48185108 14.46467953 72.90234375 21.62109375 C72.51134491 22.71191254 72.12034607 23.80273132 71.71749878 24.92660522 C70.46025518 28.43123366 69.19906069 31.93442353 67.9375 35.4375 C67.07569559 37.83615671 66.21396067 40.23483839 65.35229492 42.63354492 C59.6622729 58.45773598 53.91624169 74.25884282 48 90 C42.39 90 36.78 90 31 90 C25.58093656 75.77495847 20.53460398 61.42742184 15.5 47.0625 C14.25028583 43.50209873 13.00010255 39.94186254 11.74975586 36.38168335 C10.94503534 34.089032 10.14114534 31.79608895 9.33813477 29.50283813 C7.59912398 24.53845711 5.85357753 19.57709513 4.0703125 14.62841797 C3.7853894 13.83447128 3.50046631 13.0405246 3.20690918 12.22251892 C2.69182455 10.79020239 2.17299972 9.35922248 1.64953613 7.9299469 C0.64405432 5.1284033 0 3.0053511 0 0 Z " fill="#FDFBFB" transform="translate(991,605)"/>
<path d="M0 0 C7.56962436 4.20235374 12.23973622 10.51932856 15.375 18.5 C16.93140299 27.21585677 16.27871274 35.52605717 11.640625 43.26953125 C6.45834696 50.46862368 0.57410199 54.63225635 -8 57 C-17.20741456 58.46622796 -24.35445948 56.20382888 -32 51 C-38.74568301 45.07958672 -42.43862432 37.98296574 -43.16015625 29.0078125 C-43.49063356 20.70277412 -41.22254009 13.52817511 -36 7 C-25.84997076 -3.57405135 -13.43435951 -5.81421461 0 0 Z " fill="#15B9D9" transform="translate(477,623)"/>
<path d="M0 0 C12.99303835 11.78199686 21.32329758 25.79929389 22.73046875 43.5859375 C23.10243532 52.81070845 21.75972437 64.28033531 16.53515625 72.1171875 C17.00799204 68.33450115 17.59790002 64.73464126 18.59765625 61.0546875 C19.46842298 57.64418449 19.93728817 54.6559484 19.53515625 51.1171875 C18.11537716 48.88974963 18.11537716 48.88974963 16.53515625 47.1171875 C16.53515625 46.4571875 16.53515625 45.7971875 16.53515625 45.1171875 C13.56515625 44.7871875 10.59515625 44.4571875 7.53515625 44.1171875 C8.85515625 44.7771875 10.17515625 45.4371875 11.53515625 46.1171875 C10.16532122 49.27834526 9.54609245 50.1098967 6.53515625 52.1171875 C3.84765625 52.2421875 3.84765625 52.2421875 1.53515625 52.1171875 C-2.46484375 45.3671875 -2.46484375 45.3671875 -2.46484375 43.1171875 C-3.12484375 43.1171875 -3.78484375 43.1171875 -4.46484375 43.1171875 C-4.10390625 43.74367188 -3.74296875 44.37015625 -3.37109375 45.015625 C-2.90703125 45.83289063 -2.44296875 46.65015625 -1.96484375 47.4921875 C-1.50078125 48.30429687 -1.03671875 49.11640625 -0.55859375 49.953125 C0.53515625 52.1171875 0.53515625 52.1171875 0.53515625 54.1171875 C2.18515625 54.1171875 3.83515625 54.1171875 5.53515625 54.1171875 C4.53446018 57.1192757 3.850507 58.84821186 1.41015625 60.9296875 C-0.97763765 63.71544705 -0.53712772 65.42953963 -0.359375 68.96484375 C-0.61468154 74.17498842 -3.75864193 78.22990829 -6.90234375 82.1796875 C-9.46484375 84.1171875 -9.46484375 84.1171875 -12.08984375 84.3671875 C-14.97090112 82.85084151 -15.86822598 81.22474389 -16.984375 78.203125 C-17.66416907 75.25182391 -17.49543821 72.48282837 -17.37109375 69.47265625 C-17.53160645 65.4397746 -18.98709433 61.83794944 -20.46484375 58.1171875 C-21.29628906 58.16359375 -22.12773437 58.21 -22.984375 58.2578125 C-24.07105469 58.29390625 -25.15773437 58.33 -26.27734375 58.3671875 C-27.35628906 58.41359375 -28.43523437 58.46 -29.546875 58.5078125 C-32.46484375 58.1171875 -32.46484375 58.1171875 -34.3203125 56.37109375 C-36.22513052 52.61996747 -36.25146932 49.21738627 -35.46484375 45.1171875 C-34.28673583 43.19334123 -32.95455057 41.55480636 -31.51171875 39.82421875 C-30.10549889 37.89049398 -30.10549889 37.89049398 -30.65234375 34.1796875 C-30.92046875 33.1690625 -31.18859375 32.1584375 -31.46484375 31.1171875 C-29.48484375 31.1171875 -27.50484375 31.1171875 -25.46484375 31.1171875 C-25.58859375 30.2096875 -25.71234375 29.3021875 -25.83984375 28.3671875 C-25.46484375 25.1171875 -25.46484375 25.1171875 -22.96484375 22.8046875 C-18.8900391 20.84004955 -15.9468945 20.42629445 -11.46484375 20.1171875 C-11.13484375 18.4671875 -10.80484375 16.8171875 -10.46484375 15.1171875 C-9.47484375 15.1171875 -8.48484375 15.1171875 -7.46484375 15.1171875 C-7.46484375 14.4571875 -7.46484375 13.7971875 -7.46484375 13.1171875 C-8.78484375 13.1171875 -10.10484375 13.1171875 -11.46484375 13.1171875 C-11.13484375 10.8071875 -10.80484375 8.4971875 -10.46484375 6.1171875 C-11.12484375 6.1171875 -11.78484375 6.1171875 -12.46484375 6.1171875 C-13.12484375 9.7471875 -13.78484375 13.3771875 -14.46484375 17.1171875 C-18.08811114 18.3249433 -19.10630744 17.66029878 -22.46484375 16.1171875 C-22.18601919 9.56481026 -19.62203432 5.1408651 -15.46484375 0.1171875 C-9.74249048 -4.60482957 -6.01549856 -4.59504011 0 0 Z " fill="#F6F7FA" transform="translate(159.46484375,388.8828125)"/>
<path d="M0 0 C0.66 0.33 1.32 0.66 2 1 C1.13375 2.0209375 1.13375 2.0209375 0.25 3.0625 C-4.59023864 9.35764852 -4.59023864 9.35764852 -6 17 C-5.030625 17.4125 -4.06125 17.825 -3.0625 18.25 C-2.051875 18.8275 -1.04125 19.405 0 20 C0.33 21.32 0.66 22.64 1 24 C1.66 20.04 2.32 16.08 3 12 C4.32 12.33 5.64 12.66 7 13 C7.33 13.99 7.66 14.98 8 16 C9.32 15.67 10.64 15.34 12 15 C12.268125 15.598125 12.53625 16.19625 12.8125 16.8125 C13.98493467 18.97224808 15.19369282 20.35790256 17 22 C16.25 23.9375 16.25 23.9375 15 26 C12.875 26.75 12.875 26.75 11 27 C11 28.32 11 29.64 11 31 C10.01 31.33 9.02 31.66 8 32 C7.67 32.99 7.34 33.98 7 35 C6.01 35.495 6.01 35.495 5 36 C4.7525 36.99 4.7525 36.99 4.5 38 C4.2525 38.99 4.2525 38.99 4 40 C3.01 40.495 3.01 40.495 2 41 C1.34444881 43.52733235 1.34444881 43.52733235 1 46 C0.34 45.67 -0.32 45.34 -1 45 C-1 44.01 -1 43.02 -1 42 C-3.31 42.66 -5.62 43.32 -8 44 C-8 45.65 -8 47.3 -8 49 C-5.525 48.505 -5.525 48.505 -3 48 C-3.33 49.32 -3.66 50.64 -4 52 C-3.01 52 -2.02 52 -1 52 C-0.67 52.99 -0.34 53.98 0 55 C0.68964844 54.94199219 1.37929687 54.88398438 2.08984375 54.82421875 C9.355345 54.47539496 14.12712094 55.65651653 20 60 C20.51175781 60.5259375 21.02351563 61.051875 21.55078125 61.59375 C23.6988891 63.67816732 26.17045068 64.18257464 29 65 C28.57062332 68.41578761 28.0469522 71.7149204 27 75 C24.5625 76.75 24.5625 76.75 22 78 C21.484375 79.03125 20.96875 80.0625 20.4375 81.125 C19 84 19 84 16.8125 84.875 C16.214375 84.91625 15.61625 84.9575 15 85 C15 86.32 15 87.64 15 89 C13.02 89.495 13.02 89.495 11 90 C11 92.31 11 94.62 11 97 C10.34 97 9.68 97 9 97 C8.67 98.32 8.34 99.64 8 101 C-6.66159581 94.02601084 -15.51177913 80.63721113 -21.19921875 65.890625 C-22.40016149 60.05580077 -22.40920188 54.31760558 -22.4375 48.375 C-22.47037109 47.18003906 -22.50324219 45.98507812 -22.53710938 44.75390625 C-22.62256768 30.41244837 -17.01667196 17.6321695 -7.328125 7.09375 C-4.92713924 4.67919934 -2.49630171 2.31548307 0 0 Z " fill="#F9F9FB" transform="translate(83,388)"/>
<path d="M0 0 C16.5 0 33 0 50 0 C50 5.61 50 11.22 50 17 C44.72 17 39.44 17 34 17 C34 41.09 34 65.18 34 90 C28.06 90 22.12 90 16 90 C16 65.91 16 41.82 16 17 C10.72 17 5.44 17 0 17 C0 11.39 0 5.78 0 0 Z " fill="#FCFAFA" transform="translate(1218,605)"/>
<path d="M0 0 C16.5 0 33 0 50 0 C50 5.61 50 11.22 50 17 C44.72 17 39.44 17 34 17 C34 41.09 34 65.18 34 90 C28.06 90 22.12 90 16 90 C16 65.91 16 41.82 16 17 C10.72 17 5.44 17 0 17 C0 11.39 0 5.78 0 0 Z " fill="#FCFAFA" transform="translate(1076,605)"/>
<path d="M0 0 C16.5 0 33 0 50 0 C50 5.61 50 11.22 50 17 C44.72 17 39.44 17 34 17 C34 41.09 34 65.18 34 90 C28.06 90 22.12 90 16 90 C16 65.91 16 41.82 16 17 C10.72 17 5.44 17 0 17 C0 11.39 0 5.78 0 0 Z " fill="#FCFAFA" transform="translate(274,605)"/>
<path d="M0 0 C12.08005997 10.06059706 15.15224276 33.65549935 16.75683594 48.24511719 C19.22161084 76.16933402 15.43784674 108.65894021 -3.20703125 130.92578125 C-3.79871094 131.61027344 -4.39039063 132.29476562 -5 133 C-5.58136719 133.73605469 -6.16273438 134.47210937 -6.76171875 135.23046875 C-17.7153732 148.57234136 -33.21526579 156.06393508 -50 159 C-54.63488986 159.40985236 -59.22390923 159.47826807 -63.875 159.4375 C-65.10226807 159.42920166 -66.32953613 159.42090332 -67.59399414 159.41235352 C-86.78520044 159.05491142 -102.42441055 152.85358786 -116 139 C-124.23326584 130.37333579 -124.23326584 130.37333579 -127 125 C-126.505 124.01 -126.505 124.01 -126 123 C-125.62230469 123.4846875 -125.24460937 123.969375 -124.85546875 124.46875 C-113.74727948 137.99628729 -97.30480392 146.5400055 -79.88793945 148.31762695 C-76.71005735 148.47182536 -73.55651283 148.51894471 -70.375 148.5 C-69.24489502 148.49427979 -68.11479004 148.48855957 -66.95043945 148.48266602 C-46.92683517 148.06044305 -29.36729132 140.97264163 -15.36376953 126.47363281 C-3.91700849 114.10473742 2.99648897 99.22287387 7 83 C7.18691406 82.25951416 7.37382813 81.51902832 7.56640625 80.75610352 C9.42197198 72.2262998 9.37221452 63.64728396 9.37060547 54.95922852 C9.37496301 52.33478072 9.41134087 49.71204081 9.44921875 47.08789062 C9.54576838 32.53862364 6.65241381 20.20369835 1.83203125 6.453125 C1.1062835 4.31336167 0.5088341 2.19980802 0 0 Z " fill="#070505" transform="translate(668,409)"/>
<path d="M0 0 C5.61 0 11.22 0 17 0 C17 24.09 17 48.18 17 73 C25.25 73 33.5 73 42 73 C42 78.61 42 84.22 42 90 C28.14 90 14.28 90 0 90 C0 60.3 0 30.6 0 0 Z " fill="#FEFDFD" transform="translate(1172,605)"/>
<path d="M0 0 C5.61 0 11.22 0 17 0 C17 24.09 17 48.18 17 73 C25.25 73 33.5 73 42 73 C42 78.61 42 84.22 42 90 C28.14 90 14.28 90 0 90 C0 60.3 0 30.6 0 0 Z " fill="#FEFDFD" transform="translate(838,605)"/>
<path d="M0 0 C19.88888889 0 19.88888889 0 27.875 6.25 C35.97106629 16.72726226 36.31710334 24.64545155 35.875 37.6875 C34.26266443 43.79134179 30.87213261 48.47889225 26 52.4375 C16.64408976 57.31036992 11.89364886 56 0 56 C0 37.52 0 19.04 0 0 Z " fill="#15B9D9" transform="translate(1298,622)"/>
<path d="M0 0 C19.88888889 0 19.88888889 0 27.875 6.25 C35.97106629 16.72726226 36.31710334 24.64545155 35.875 37.6875 C34.26266443 43.79134179 30.87213261 48.47889225 26 52.4375 C16.64408976 57.31036992 11.89364886 56 0 56 C0 37.52 0 19.04 0 0 Z " fill="#15B9D9" transform="translate(544,622)"/>
<path d="M0 0 C1.98 0 3.96 0 6 0 C6 62.37 6 124.74 6 189 C-5.55 189 -17.1 189 -29 189 C-29 185.37 -29 181.74 -29 178 C-19.76 178 -10.52 178 -1 178 C-1.00222061 175.78475113 -1.00444122 173.56950226 -1.00672913 171.28712463 C-1.02712821 150.46408836 -1.0420292 129.64105339 -1.05181217 108.81800938 C-1.05697567 98.11133493 -1.06401937 87.4046678 -1.07543945 76.69799805 C-1.08538467 67.36963917 -1.09185304 58.04128559 -1.09408849 48.71292156 C-1.09539588 43.77041051 -1.09848348 38.82791461 -1.10573006 33.8854084 C-1.11248771 29.23898765 -1.11461748 24.59258838 -1.11310768 19.94616318 C-1.11338412 18.23565873 -1.11539075 16.52515361 -1.11920547 14.8146534 C-1.12413875 12.48969501 -1.12299966 10.16481908 -1.12025452 7.83985901 C-1.12117631 6.53552194 -1.1220981 5.23118486 -1.12304783 3.88732243 C-1 1 -1 1 0 0 Z " fill="#0E0505" transform="translate(490,377)"/>
<path d="M0 0 C5.61 0 11.22 0 17 0 C17 29.7 17 59.4 17 90 C11.39 90 5.78 90 0 90 C0 60.3 0 30.6 0 0 Z " fill="#FFFFFF" transform="translate(612,605)"/>
<path d="M0 0 C1.98 0 3.96 0 6 0 C6 62.04 6 124.08 6 188 C-5.22 188 -16.44 188 -28 188 C-34 179 -34 179 -34 178 C-22.78 178 -11.56 178 0 178 C0 119.26 0 60.52 0 0 Z " fill="#050606" transform="translate(851,377)"/>
<path d="M0 0 C15.51 0 31.02 0 47 0 C51 9 51 9 51 11 C36.48 11 21.96 11 7 11 C7 36.08 7 61.16 7 87 C-4.55 87 -16.1 87 -28 87 C-28 83.7 -28 80.4 -28 77 C-18.76 77 -9.52 77 0 77 C0 51.59 0 26.18 0 0 Z " fill="#0B0505" transform="translate(1225,478)"/>
<path d="M0 0 C1.98 0 3.96 0 6 0 C6 9.57 6 19.14 6 29 C-34.26 29 -74.52 29 -116 29 C-116 25.7 -116 22.4 -116 19 C-77.72 19 -39.44 19 0 19 C0 12.73 0 6.46 0 0 Z " fill="#050606" transform="translate(1163,536)"/>
<path d="M0 0 C1.98 0 3.96 0 6 0 C6 9.57 6 19.14 6 29 C-34.26 29 -74.52 29 -116 29 C-116 25.7 -116 22.4 -116 19 C-77.72 19 -39.44 19 0 19 C0 12.73 0 6.46 0 0 Z " fill="#050606" transform="translate(1013,536)"/>
<path d="M0 0 C1.98 0 3.96 0 6 0 C6 9.9 6 19.8 6 30 C-22.38 30 -50.76 30 -80 30 C-80 43.2 -80 56.4 -80 70 C-82.31 70 -84.62 70 -87 70 C-87 53.5 -87 37 -87 20 C-58.29 20 -29.58 20 0 20 C0 13.4 0 6.8 0 0 Z " fill="#080505" transform="translate(1162,377)"/>
<path d="M0 0 C1.98 0 3.96 0 6 0 C6 9.9 6 19.8 6 30 C-22.38 30 -50.76 30 -80 30 C-80 43.2 -80 56.4 -80 70 C-82.31 70 -84.62 70 -87 70 C-87 53.5 -87 37 -87 20 C-58.29 20 -29.58 20 0 20 C0 13.4 0 6.8 0 0 Z " fill="#080505" transform="translate(1012,377)"/>
<path d="M0 0 C4.65343929 3.84949144 9.92485544 8.39708846 10.921875 14.58984375 C10.37660156 14.19152344 9.83132813 13.79320312 9.26953125 13.3828125 C-1.69494837 5.67956272 -11.86007073 4.23326221 -25.078125 5.58984375 C-28.80541198 6.41969255 -31.8034681 7.64456339 -35.078125 9.58984375 C-35.78066406 9.99074219 -36.48320313 10.39164062 -37.20703125 10.8046875 C-48.85899991 18.43263662 -52.77649884 32.25435179 -55.64453125 45.13330078 C-57.405366 54.26291454 -57.47099239 63.32776325 -57.453125 72.58984375 C-57.45424286 73.40533691 -57.45536072 74.22083008 -57.45651245 75.06103516 C-57.44800321 87.66338238 -56.40938021 99.38861986 -53.078125 111.58984375 C-52.72939376 113.25335672 -52.38820161 114.91869403 -52.078125 116.58984375 C-61.12548124 108.38166258 -62.12650263 93.98024314 -64.078125 82.58984375 C-64.25609619 81.62852539 -64.43406738 80.66720703 -64.61743164 79.67675781 C-67.93742534 57.4308647 -65.98962829 27.87325775 -53.078125 8.58984375 C-40.02062499 -7.22451806 -17.61871344 -11.97635686 0 0 Z " fill="#080505" transform="translate(621.078125,398.41015625)"/>
<path d="M0 0 C3.14062129 1.03771075 3.99980348 1.99967598 5.74609375 4.87890625 C7.64559459 8.8547979 9.33462302 12.92171887 11 17 C11.7734375 18.80597656 11.7734375 18.80597656 12.5625 20.6484375 C19.59472119 38.99976053 18.8257741 65.0815399 11 83 C10.5985376 83.9293335 10.5985376 83.9293335 10.18896484 84.87744141 C-0.13779755 108.31985751 -17.62946354 124.96089847 -41 135 C-41.61311035 135.27392578 -42.2262207 135.54785156 -42.85791016 135.83007812 C-60.52528859 143.40384551 -85.82369177 142.74782352 -103.72265625 136.38671875 C-105.34494141 135.70029297 -105.34494141 135.70029297 -107 135 C-107.98009033 134.58548584 -107.98009033 134.58548584 -108.97998047 134.16259766 C-110.65674418 133.4497321 -112.32885402 132.7259373 -114 132 C-114 131.34 -114 130.68 -114 130 C-108.92997048 130.78348153 -104.05394143 131.975246 -99.09765625 133.28125 C-75.12923995 138.84264798 -50.64597846 132.6710339 -30 120 C-26.85040071 117.81950818 -23.91436442 115.48214935 -21 113 C-19.989375 112.236875 -18.97875 111.47375 -17.9375 110.6875 C-0.61263117 94.83708809 9.01884449 71.94603465 10.3828125 48.75 C10.91699021 32.96998409 8.36581886 18.50922905 1.171875 4.40625 C0 2 0 2 0 0 Z " fill="#15B9D9" transform="translate(204,382)"/>
<path d="M0 0 C2.77090249 2.57380901 4.63604362 4.77159769 6.125 8.25 C6.43695312 8.95640625 6.74890625 9.6628125 7.0703125 10.390625 C12.17995353 24.73197041 12.45342538 43.05098117 6 57 C1.07303001 67.14547667 -5.50308735 73.8241851 -15.28125 79.2421875 C-15.92868164 79.60626709 -16.57611328 79.97034668 -17.24316406 80.34545898 C-18.82623631 81.23484182 -20.41277058 82.11805763 -22 83 C-20.33042776 87.31182387 -18.65897275 91.62291294 -16.98590088 95.93338013 C-16.37074238 97.51832101 -15.75579252 99.1033429 -15.14105225 100.68844604 C-11.23239925 110.76285614 -7.28574045 120.8210924 -3.28515625 130.859375 C-2.89592484 131.83750656 -2.50669342 132.81563812 -2.10566711 133.82341003 C-0.18852258 138.64097898 1.73356656 143.45646651 3.66381836 148.26879883 C4.36725988 150.03457431 5.07047754 151.800439 5.7734375 153.56640625 C6.10089462 154.37732727 6.42835175 155.18824829 6.76573181 156.02374268 C9 161.65924494 9 161.65924494 9 165 C-2.88 165 -14.76 165 -27 165 C-31 156 -31 156 -31 155 C-19.78 155 -8.56 155 3 155 C1.52789063 151.33132813 0.05578125 147.66265625 -1.4609375 143.8828125 C-2.66759731 140.87263793 -3.87388875 137.8623163 -5.0799408 134.85189819 C-6.33442271 131.72087556 -7.58968625 128.59017259 -8.84619141 125.45996094 C-14.20799058 112.10135957 -19.53205748 98.72927405 -24.7265625 85.3046875 C-25.15858978 84.19400909 -25.59061707 83.08333069 -26.03573608 81.93899536 C-26.42693634 80.92255951 -26.8181366 79.90612366 -27.22119141 78.85888672 C-27.56614655 77.96547577 -27.91110168 77.07206482 -28.26651001 76.15158081 C-29 74 -29 74 -29 72 C-28.31035156 71.64808594 -27.62070313 71.29617188 -26.91015625 70.93359375 C-13.07766051 63.66631547 -3.92304776 55.73302567 1.2734375 40.640625 C4.82042471 27.74942416 4.31052933 12.62369303 0 0 Z " fill="#060505" transform="translate(1334,400)"/>
<path d="M0 0 C9.24 -0.0825 18.48 -0.165 28 -0.25 C30.88234375 -0.28641602 33.7646875 -0.32283203 36.734375 -0.36035156 C72.11073049 -0.62150059 72.11073049 -0.62150059 83 10 C85.56842786 13.20095114 87.85182668 16.50490129 90 20 C89.67 20.66 89.34 21.32 89 22 C88.29037109 21.40251953 88.29037109 21.40251953 87.56640625 20.79296875 C71.62763776 8.02331212 48.41754589 10.80204371 29.125 10.4375 C26.97264966 10.39420653 24.82030581 10.35058921 22.66796875 10.30664062 C17.44538138 10.20069584 12.2227283 10.09873954 7 10 C7.00222061 10.74946396 7.00444122 11.49892792 7.00672913 12.27110291 C7.02673179 19.31982291 7.041974 26.36853315 7.05181217 33.41727352 C7.05704002 37.0414596 7.06413587 40.6656223 7.07543945 44.28979492 C7.08627184 47.78459975 7.09227758 51.27938204 7.09487724 54.77420235 C7.09763551 56.76239389 7.10544688 58.75057631 7.11329651 60.73875427 C7.11337204 61.93992386 7.11344757 63.14109344 7.11352539 64.37866211 C7.115746 65.44233505 7.11796661 66.506008 7.12025452 67.60191345 C7 70 7 70 6 71 C4.02 71 2.04 71 0 71 C0 47.57 0 24.14 0 0 Z " fill="#080505" transform="translate(288,351)"/>
<path d="M0 0 C1.98 0 3.96 0 6 0 C6 9.24 6 18.48 6 28 C-16.77 28 -39.54 28 -63 28 C-63 41.53 -63 55.06 -63 69 C-65.31 69 -67.62 69 -70 69 C-70 51.84 -70 34.68 -70 17 C-46.9 17 -23.8 17 0 17 C0 11.39 0 5.78 0 0 Z " fill="#0A0505" transform="translate(1145,457)"/>
<path d="M0 0 C1.98 0 3.96 0 6 0 C6 9.24 6 18.48 6 28 C-16.77 28 -39.54 28 -63 28 C-63 41.53 -63 55.06 -63 69 C-65.31 69 -67.62 69 -70 69 C-70 51.84 -70 34.68 -70 17 C-46.9 17 -23.8 17 0 17 C0 11.39 0 5.78 0 0 Z " fill="#0A0505" transform="translate(995,457)"/>
<path d="M0 0 C6.2509632 7.813704 6.2509632 7.813704 6.24723816 14.63737488 C6.25143265 15.78575333 6.25562714 16.93413177 6.25994873 18.11730957 C6.25151947 20.00093201 6.25151947 20.00093201 6.24291992 21.92260742 C6.24399311 23.26146029 6.24593234 24.60031271 6.24867249 25.93916321 C6.2535167 29.57115501 6.24587148 33.20302382 6.23571944 36.83500075 C6.22693649 40.63286305 6.2286964 44.43072153 6.2290802 48.22859192 C6.22814396 54.60318054 6.21946363 60.97772152 6.20581055 67.35229492 C6.19006525 74.7311743 6.18481316 82.11000158 6.1855461 89.48889655 C6.18615547 96.58064638 6.18105965 103.67237919 6.17275429 110.76412392 C6.16921616 113.78604579 6.16739029 116.80796164 6.16686058 119.82988548 C6.16585932 123.3830997 6.15978063 126.93626984 6.14969444 130.48946953 C6.14535973 132.4227338 6.14594262 134.35600711 6.14663696 136.28927612 C6.14237198 137.4291951 6.13810699 138.56911407 6.13371277 139.74357605 C6.13203692 140.74036975 6.13036108 141.73716345 6.12863445 142.76416302 C6 145 6 145 5 146 C3.00035018 146.08758003 0.9976389 146.10696576 -1.00390625 146.09765625 C-2.21884766 146.09443359 -3.43378906 146.09121094 -4.68554688 146.08789062 C-5.96494141 146.07951172 -7.24433594 146.07113281 -8.5625 146.0625 C-9.84576172 146.05798828 -11.12902344 146.05347656 -12.45117188 146.04882812 C-15.63416022 146.03699545 -18.81705762 146.02051068 -22 146 C-22 142.37 -22 138.74 -22 135 C-14.74 135 -7.48 135 0 135 C0 90.45 0 45.9 0 0 Z " fill="#050505" transform="translate(737,420)"/>
<path d="M0 0 C6.8312472 -0.50022863 11.29373777 0.97039454 17.375 4 C18.63280273 4.61512451 18.63280273 4.61512451 19.91601562 5.24267578 C26.31264788 8.46211521 31.79244604 12.0537247 37 17 C38.36511719 18.23169922 38.36511719 18.23169922 39.7578125 19.48828125 C55.34960239 34.16665565 63.94204912 53.96892777 64.9296875 75.24609375 C65.33895097 97.09621548 57.53008255 116.67195041 43 133 C34.33472022 141.96580971 23.96317707 149.98735102 12 154 C11.01 154 10.02 154 9 154 C10 151 10 151 12.3359375 149.7109375 C13.33882812 149.27007812 14.34171875 148.82921875 15.375 148.375 C33.47188748 139.68160815 45.39834283 123.50192068 52.11987305 104.94335938 C58.95234104 84.84814862 57.65895631 61.52602339 48.734375 42.28515625 C45.88420496 36.88652336 42.63302406 31.9013579 39 27 C38.48050781 26.28328125 37.96101563 25.5665625 37.42578125 24.828125 C27.96155677 12.90844681 13.78135864 6.46196966 0 1 C0 0.67 0 0.34 0 0 Z " fill="#39C4E1" transform="translate(141,350)"/>
<path d="M0 0 C11.818125 -0.061875 11.818125 -0.061875 23.875 -0.125 C26.34210449 -0.14320801 28.80920898 -0.16141602 31.35107422 -0.18017578 C33.33560978 -0.18602427 35.32014776 -0.19111898 37.3046875 -0.1953125 C38.31152588 -0.20554443 39.31836426 -0.21577637 40.35571289 -0.22631836 C51.27778493 -0.22897515 62.44131287 1.18631587 70.92578125 8.70703125 C73.99561021 12.06992265 75.30480361 14.43826192 76 19 C75.16855469 18.57847656 74.33710937 18.15695312 73.48046875 17.72265625 C72.39378906 17.17480469 71.30710937 16.62695312 70.1875 16.0625 C69.10855469 15.51722656 68.02960938 14.97195313 66.91796875 14.41015625 C58.50949972 10.3466257 48.69967205 10.85701196 39.51953125 10.68359375 C38.6853064 10.66494263 37.85108154 10.6462915 36.99157715 10.6270752 C33.93197273 10.55975916 30.87222703 10.49899108 27.8125 10.4375 C20.944375 10.293125 14.07625 10.14875 7 10 C7 25.18 7 40.36 7 56 C4.69 56 2.38 56 0 56 C0 37.52 0 19.04 0 0 Z " fill="#0A0505" transform="translate(1225,395)"/>
<path d="M0 0 C0.33 1.32 0.66 2.64 1 4 C7.93 4.495 7.93 4.495 15 5 C18.875 14.625 18.875 14.625 20 18 C21.65 18 23.3 18 25 18 C23.99930393 21.0020882 23.31535075 22.73102436 20.875 24.8125 C18.4872061 27.59825955 18.92771603 29.31235213 19.10546875 32.84765625 C18.85016221 38.05780092 15.70620182 42.11272079 12.5625 46.0625 C10 48 10 48 7.375 48.25 C4.49394263 46.73365401 3.59661777 45.10755639 2.48046875 42.0859375 C1.80067468 39.13463641 1.96940554 36.36564087 2.09375 33.35546875 C1.9332373 29.3225871 0.47774942 25.72076194 -1 22 C-1.83144531 22.04640625 -2.66289062 22.0928125 -3.51953125 22.140625 C-4.60621094 22.17671875 -5.69289062 22.2128125 -6.8125 22.25 C-8.43091797 22.31960938 -8.43091797 22.31960938 -10.08203125 22.390625 C-13 22 -13 22 -14.87109375 20.2734375 C-16.13033943 17.73751714 -16.3440665 16.18758822 -16.25 13.375 C-16.23453125 12.59898437 -16.2190625 11.82296875 -16.203125 11.0234375 C-16 9 -16 9 -15 7 C-13.33333333 6 -11.66666667 5 -10 4 C-9.67 3.34 -9.34 2.68 -9 2 C-5.93853104 0.03191281 -3.59835033 -0.19990835 0 0 Z " fill="#FAFAFC" transform="translate(140,425)"/>
<path d="M0 0 C14.90050061 13.9810077 23.93465257 33.80489647 24.84375 54.19140625 C24.76065063 63.65434719 23.08287593 72.59402111 20.375 81.625 C20.16987793 82.32157715 19.96475586 83.0181543 19.75341797 83.73583984 C19.12890625 85.6796875 19.12890625 85.6796875 17.8125 88.75 C16.3275 89.245 16.3275 89.245 14.8125 89.75 C15.10125 88.5125 15.39 87.275 15.6875 86 C20.62024562 63.41507183 20.24818845 41.01179407 7.67382812 20.93164062 C-4.43580251 3.01575031 -21.65129529 -8.07526383 -42.59399414 -12.79199219 C-58.92644813 -15.67627005 -75.70449841 -13.20145186 -90.1875 -5.25 C-90.8475 -5.25 -91.5075 -5.25 -92.1875 -5.25 C-92.1875 -6.24 -92.1875 -7.23 -92.1875 -8.25 C-61.39175568 -24.92511501 -27.01208372 -23.03005922 0 0 Z " fill="#65C0DA" transform="translate(164.1875,375.25)"/>
<path d="M0 0 C0.8971875 0.99 0.8971875 0.99 1.8125 2 C3.87501834 4.3373846 3.87501834 4.3373846 7 4 C7.721875 4.763125 8.44375 5.52625 9.1875 6.3125 C12.67193761 9.64207372 15.45101148 10.53507149 20 12 C20 12.66 20 13.32 20 14 C21.65 14 23.3 14 25 14 C24.85691406 15.01320313 24.85691406 15.01320313 24.7109375 16.046875 C24.60007812 16.93890625 24.48921875 17.8309375 24.375 18.75 C24.25898437 19.63171875 24.14296875 20.5134375 24.0234375 21.421875 C23.99730933 24.29597338 24.40448387 25.63245994 26 28 C26.99 28.66 27.98 29.32 29 30 C28.90912109 30.94746094 28.90912109 30.94746094 28.81640625 31.9140625 C28.09635714 39.60197142 27.52854446 47.29674563 27 55 C18.82218029 53.51641324 13.38515396 45.45456867 8.89453125 39.05078125 C4.24443104 31.56268173 -0.15830672 23.42939521 -0.09765625 14.453125 C-0.09443359 13.60878906 -0.09121094 12.76445312 -0.08789062 11.89453125 C-0.07951172 11.02183594 -0.07113281 10.14914062 -0.0625 9.25 C-0.05798828 8.36183594 -0.05347656 7.47367187 -0.04882812 6.55859375 C-0.037074 4.37232671 -0.02064249 2.18619821 0 0 Z " fill="#15B9D9" transform="translate(61,431)"/>
<path d="M0 0 C0.66 0 1.32 0 2 0 C7.65205298 12.86851349 7.98242662 26.91821166 3.2734375 40.16015625 C1.32624101 44.50252387 -1.10920314 48.23561068 -4 52 C-4.86625 53.299375 -4.86625 53.299375 -5.75 54.625 C-13.34300743 62.63984118 -23.70724955 68.1931098 -34.70703125 69.41015625 C-48.86988568 69.74563066 -61.05939018 67.00056548 -71.8046875 57.52734375 C-79.45199985 50.17249235 -79.45199985 50.17249235 -80 46 C-79.5875 46.37511719 -79.175 46.75023437 -78.75 47.13671875 C-67.33950374 57.24825227 -56.2261256 61.82314386 -40.953125 61.25 C-28.40534683 60.45646462 -17.65697387 55.2834654 -9 46 C-4.55389948 40.49289822 -1.73776811 34.85105701 0 28 C0.18691406 27.27296875 0.37382812 26.5459375 0.56640625 25.796875 C1.17720264 21.85696316 1.14438595 17.98058268 1.125 14 C1.12886719 13.2059375 1.13273437 12.411875 1.13671875 11.59375 C1.13005759 7.5970522 0.99085908 3.90052465 0 0 Z " fill="#480505" transform="translate(508,635)"/>
<path d="M0 0 C4.55067826 3.96344264 5.62121312 9.75475111 6.30029297 15.57275391 C6.43608989 18.16085418 6.46785664 20.72110287 6.4375 23.3125 C6.42992676 24.22676758 6.42235352 25.14103516 6.41455078 26.08300781 C6.09144093 39.4366425 1.99462401 50.51974363 -7.75 59.8125 C-15.99417252 66.63253523 -25.44638196 68.1640111 -35.80078125 68.09765625 C-36.63715622 68.0962413 -37.47353119 68.09482635 -38.33525085 68.09336853 C-40.994371 68.08779184 -43.6534055 68.07524365 -46.3125 68.0625 C-48.12044149 68.05748199 -49.9283843 68.05291961 -51.73632812 68.04882812 C-56.15758484 68.03783004 -60.57877793 68.0205815 -65 68 C-65 65.69 -65 63.38 -65 61 C-63.99211426 60.98541748 -62.98422852 60.97083496 -61.94580078 60.95581055 C-58.16209613 60.89729495 -54.37895394 60.82007193 -50.59570312 60.73754883 C-48.96656508 60.70454751 -47.33731949 60.67644065 -45.70800781 60.65356445 C-30.99718946 60.44147597 -18.61670088 59.11289234 -7.8125 48 C2.10542469 35.08169473 2.11152735 21.62801391 1 6 C0.71532252 3.99249661 0.41136267 1.98541982 0 0 Z " fill="#460202" transform="translate(1349,634)"/>
<path d="M0 0 C4.55067826 3.96344264 5.62121312 9.75475111 6.30029297 15.57275391 C6.43608989 18.16085418 6.46785664 20.72110287 6.4375 23.3125 C6.42992676 24.22676758 6.42235352 25.14103516 6.41455078 26.08300781 C6.09144093 39.4366425 1.99462401 50.51974363 -7.75 59.8125 C-15.99417252 66.63253523 -25.44638196 68.1640111 -35.80078125 68.09765625 C-36.63715622 68.0962413 -37.47353119 68.09482635 -38.33525085 68.09336853 C-40.994371 68.08779184 -43.6534055 68.07524365 -46.3125 68.0625 C-48.12044149 68.05748199 -49.9283843 68.05291961 -51.73632812 68.04882812 C-56.15758484 68.03783004 -60.57877793 68.0205815 -65 68 C-65 65.69 -65 63.38 -65 61 C-63.99211426 60.98541748 -62.98422852 60.97083496 -61.94580078 60.95581055 C-58.16209613 60.89729495 -54.37895394 60.82007193 -50.59570312 60.73754883 C-48.96656508 60.70454751 -47.33731949 60.67644065 -45.70800781 60.65356445 C-30.99718946 60.44147597 -18.61670088 59.11289234 -7.8125 48 C2.10542469 35.08169473 2.11152735 21.62801391 1 6 C0.71532252 3.99249661 0.41136267 1.98541982 0 0 Z " fill="#460303" transform="translate(595,634)"/>
<path d="M0 0 C2.31 0 4.62 0 7 0 C1.64817917 16.44567628 -4.17980665 32.69817264 -10.125 48.9375 C-11.45125439 52.56835746 -12.77668176 56.199516 -14.10198975 59.83071899 C-14.94430259 62.13843943 -15.78694454 64.44603976 -16.62994385 66.75350952 C-19.45498214 74.49023097 -22.24682937 82.23742969 -25 90 C-30.61 90 -36.22 90 -42 90 C-42.66 87.69 -43.32 85.38 -44 83 C-39.05 83 -34.1 83 -29 83 C-28.58121582 81.4010791 -28.16243164 79.8021582 -27.73095703 78.15478516 C-26.18695968 72.50083594 -24.32552658 67.02207761 -22.3046875 61.5234375 C-21.95543716 60.5620134 -21.60618683 59.60058929 -21.24635315 58.61003113 C-20.12659782 55.53020309 -19.00085298 52.45260355 -17.875 49.375 C-17.10509631 47.26050047 -16.33564783 45.14583514 -15.56665039 43.03100586 C-14.06169162 38.89322326 -12.55483797 34.7561395 -11.04638672 30.61962891 C-8.49079549 23.60749234 -5.96018023 16.58653777 -3.4375 9.5625 C-2.74870197 7.64713396 -2.05990044 5.73176918 -1.37109375 3.81640625 C-0.91399892 2.54429368 -0.45693819 1.27216885 0 0 Z " fill="#470606" transform="translate(1068,612)"/>
<path d="M0 0 C0.66 0.66 1.32 1.32 2 2 C5.64731135 1.70116567 7.62256648 -0.15401927 10.25 -2.5625 C11.30960938 -3.52349609 11.30960938 -3.52349609 12.390625 -4.50390625 C12.92171875 -4.99761719 13.4528125 -5.49132812 14 -6 C15.65 -4.68 17.3 -3.36 19 -2 C17.52278578 1.45201639 15.56205999 3.64961936 12.875 6.25 C12.15054688 6.95640625 11.42609375 7.6628125 10.6796875 8.390625 C10.12539063 8.92171875 9.57109375 9.4528125 9 10 C6.15739049 8.93637459 4.10057576 8.08381314 1.75 6.125 C-6.71350688 -0.41498259 -16.51809302 -2.19693616 -27 -1 C-36.48729077 2.06808568 -43.07443432 7.40861513 -47.671875 16.1953125 C-49.41085894 20.42987704 -49.33845144 24.42056839 -49.1875 28.9375 C-49.17396484 29.71673828 -49.16042969 30.49597656 -49.14648438 31.29882812 C-49.11150224 33.19952404 -49.05770959 35.09985834 -49 37 C-51 36 -51 36 -51.8515625 33.8828125 C-54.91786362 22.94943577 -55.44384872 14.92147963 -49.84375 4.73828125 C-45.40975196 -1.84695736 -39.36492892 -6.36071616 -31.75 -8.6875 C-19.38646279 -10.09244741 -9.89390602 -7.65498332 0 0 Z " fill="#470606" transform="translate(715,629)"/>
<path d="M0 0 C3.23950307 3.20504027 3.42405502 6.01292962 3.51928711 10.34667969 C3.50973999 11.53632324 3.50973999 11.53632324 3.5 12.75 C3.49427979 13.56114258 3.48855957 14.37228516 3.48266602 15.20800781 C3.29900903 21.32990746 2.43980722 25.54886674 -2 30 C-2.4846875 30.55816406 -2.969375 31.11632812 -3.46875 31.69140625 C-8.30720032 36.6128692 -14.28959982 38.15843166 -21 39 C-24.96 39 -28.92 39 -33 39 C-33 51.54 -33 64.08 -33 77 C-38.61 77 -44.22 77 -50 77 C-50 74.69 -50 72.38 -50 70 C-45.38 70 -40.76 70 -36 70 C-36 57.46 -36 44.92 -36 32 C-31.05 31.67 -26.1 31.34 -21 31 C-13.11785686 28.76075479 -8.52988717 25.87684821 -4 19 C-0.70516754 13.05471191 -0.35624109 6.68259155 0 0 Z " fill="#440101" transform="translate(981,625)"/>
<path d="M0 0 C1.32 0 2.64 0 4 0 C4 5.61 4 11.22 4 17 C-1.28 17 -6.56 17 -12 17 C-12 41.09 -12 65.18 -12 90 C-17.94 90 -23.88 90 -30 90 C-30 87.69 -30 85.38 -30 83 C-25.38 83 -20.76 83 -16 83 C-16 58.91 -16 34.82 -16 10 C-10.72 10 -5.44 10 0 10 C0 6.7 0 3.4 0 0 Z " fill="#490101" transform="translate(1268,612)"/>
<path d="M0 0 C1.32 0 2.64 0 4 0 C4 5.61 4 11.22 4 17 C-1.28 17 -6.56 17 -12 17 C-12 41.09 -12 65.18 -12 90 C-17.94 90 -23.88 90 -30 90 C-30 87.69 -30 85.38 -30 83 C-25.38 83 -20.76 83 -16 83 C-16 58.91 -16 34.82 -16 10 C-10.72 10 -5.44 10 0 10 C0 6.7 0 3.4 0 0 Z " fill="#490101" transform="translate(1126,612)"/>
<path d="M0 0 C1.32 0 2.64 0 4 0 C4 5.61 4 11.22 4 17 C-1.28 17 -6.56 17 -12 17 C-12 41.09 -12 65.18 -12 90 C-17.94 90 -23.88 90 -30 90 C-30 87.69 -30 85.38 -30 83 C-25.38 83 -20.76 83 -16 83 C-16 58.91 -16 34.82 -16 10 C-10.72 10 -5.44 10 0 10 C0 6.7 0 3.4 0 0 Z " fill="#490101" transform="translate(324,612)"/>
<path d="M0 0 C1.70884005 1.62339805 3.37446717 3.29319053 5 5 C5 5.66 5 6.32 5 7 C-5.64699776 17.45855532 -18.84372902 23.38985406 -33.72265625 23.29980469 C-49.27681665 22.9644627 -60.16933643 17.92685064 -71 7 C-72.02990076 5.68962517 -73.04215011 4.36392865 -74 3 C-73.67 2.34 -73.34 1.68 -73 1 C-72.23429688 1.77923828 -72.23429688 1.77923828 -71.453125 2.57421875 C-59.96480722 13.5940413 -47.62497269 15.57673294 -32.36328125 15.34375 C-19.65997572 14.81027785 -9.50235638 7.96971825 0 0 Z " fill="#470303" transform="translate(729,681)"/>
<path d="M0 0 C11.88 0 23.76 0 36 0 C36.99 2.31 37.98 4.62 39 7 C27.45 7 15.9 7 4 7 C3.01 9.97 2.02 12.94 1 16 C-0.2791201 19.358225 -1.64095301 22.67267806 -3 26 C-8.94 26 -14.88 26 -21 26 C-20.01 22.535 -20.01 22.535 -19 19 C-15.04 19 -11.08 19 -7 19 C-6.38125 17.081875 -6.38125 17.081875 -5.75 15.125 C-4.08193964 9.95401288 -2.03516705 5.08791762 0 0 Z " fill="#450505" transform="translate(763,676)"/>
<path d="M0 0 C4.87860496 2.92716298 8.70332891 6.32971596 12 11 C11.67 11.66 11.34 12.32 11 13 C10.38125 12.4225 9.7625 11.845 9.125 11.25 C1.28807704 5.60741547 -6.43174418 3.95160581 -16 5 C-23.08818459 6.28309844 -28.26157781 10.75788727 -33 16 C-37.04542547 22.2459591 -38.14550906 27.87631731 -38.0625 35.1875 C-38.05798828 35.93708984 -38.05347656 36.68667969 -38.04882812 37.45898438 C-38.03706354 39.30602383 -38.01912865 41.15302213 -38 43 C-42.44734735 37.48041548 -43.43349533 31.24098612 -43.25390625 24.296875 C-42.26138224 15.3183501 -37.95663891 8.03409104 -30.9765625 2.390625 C-21.21712861 -4.47569608 -10.84622909 -4.74965587 0 0 Z " fill="#490808" transform="translate(477,623)"/>
<path d="M0 0 C9.57 0 19.14 0 29 0 C29 2.31 29 4.62 29 7 C20.75 7 12.5 7 4 7 C4 19.87 4 32.74 4 46 C-1.94 46 -7.88 46 -14 46 C-14 43.69 -14 41.38 -14 39 C-9.38 39 -4.76 39 0 39 C0 26.13 0 13.26 0 0 Z " fill="#480202" transform="translate(354,656)"/>
<path d="M0 0 C1.32 0 2.64 0 4 0 C4 29.7 4 59.4 4 90 C-1.61 90 -7.22 90 -13 90 C-13.33 87.69 -13.66 85.38 -14 83 C-9.38 83 -4.76 83 0 83 C0 55.61 0 28.22 0 0 Z " fill="#460101" transform="translate(401,612)"/>
<path d="M0 0 C1.32 0 2.64 0 4 0 C4 29.7 4 59.4 4 90 C-1.61 90 -7.22 90 -13 90 C-13 87.69 -13 85.38 -13 83 C-8.71 83 -4.42 83 0 83 C0 55.61 0 28.22 0 0 Z " fill="#450707" transform="translate(629,612)"/>
<path d="M0 0 C2.83357042 2.83357042 2.74112086 5.23394163 3.0536499 9.13745117 C2.95862444 14.20763786 1.31518643 18.66481748 -0.3671875 23.40625 C-0.72136749 24.45276733 -1.07554749 25.49928467 -1.44046021 26.57751465 C-2.56704391 29.89158993 -3.7206453 33.19550904 -4.875 36.5 C-5.64369501 38.74939661 -6.41063998 40.99939208 -7.17578125 43.25 C-12.66644597 59.33289195 -12.66644597 59.33289195 -14 62 C-18.95 62 -23.9 62 -29 62 C-31 58 -31 58 -31 55 C-26.71 55 -22.42 55 -18 55 C-17.57871826 53.40567139 -17.15743652 51.81134277 -16.72338867 50.16870117 C-15.16687219 44.46648535 -13.35389856 38.88656056 -11.42578125 33.30078125 C-11.09708542 32.3397197 -10.76838959 31.37865814 -10.42973328 30.38847351 C-9.3938458 27.36204448 -8.35326306 24.33725536 -7.3125 21.3125 C-6.60320248 19.24294584 -5.89421534 17.17328527 -5.18554688 15.10351562 C-3.46061198 10.06777664 -1.73183419 5.03337015 0 0 Z " fill="#490808" transform="translate(178,640)"/>
<path d="M0 0 C0.99 0 1.98 0 3 0 C3 5.61 3 11.22 3 17 C-13.17 17 -29.34 17 -46 17 C-46 14.69 -46 12.38 -46 10 C-30.82 10 -15.64 10 0 10 C0 6.7 0 3.4 0 0 Z " fill="#420000" transform="translate(268,685)"/>
<path d="M0 0 C3.14056803 3.14056803 2.91081956 6.68466902 3 11 C2.68304833 14.64581514 2.0547521 18.20527171 1.3828125 21.80078125 C1.20620087 22.79957809 1.02958923 23.79837494 0.84762573 24.82743835 C0.28513039 27.99135474 -0.29480059 31.15178776 -0.875 34.3125 C-1.2576301 36.45357625 -1.63915127 38.59485098 -2.01953125 40.73632812 C-2.71852227 44.64745514 -3.42037367 48.55798601 -4.13623047 52.46606445 C-4.35060257 53.63779961 -4.35060257 53.63779961 -4.56930542 54.83320618 C-4.98070111 56.90290866 -5.48820301 58.95281202 -6 61 C-11.28 61 -16.56 61 -22 61 C-22 58.69 -22 56.38 -22 54 C-18.04 54 -14.08 54 -10 54 C-9.83395264 52.9577124 -9.66790527 51.9154248 -9.49682617 50.84155273 C-8.8679539 46.89918046 -8.23516773 42.957444 -7.60131836 39.01586914 C-7.32977624 37.32397753 -7.05923475 35.63192495 -6.78979492 33.93969727 C-2.02994395 4.0598879 -2.02994395 4.0598879 0 0 Z " fill="#470707" transform="translate(126,641)"/>
<path d="M0 0 C0.99 0 1.98 0 3 0 C3 5.61 3 11.22 3 17 C-7.56 17 -18.12 17 -29 17 C-29 22.61 -29 28.22 -29 34 C-30.32 34 -31.64 34 -33 34 C-33 26.08 -33 18.16 -33 10 C-22.11 10 -11.22 10 0 10 C0 6.7 0 3.4 0 0 Z " fill="#480B0B" transform="translate(268,644)"/>
<path d="M0 0 C1.9773281 2.96599215 3.11194485 5.62501411 4.3828125 8.9453125 C5.04990234 10.68361328 5.04990234 10.68361328 5.73046875 12.45703125 C6.19066406 13.66746094 6.65085937 14.87789062 7.125 16.125 C7.59292969 17.34316406 8.06085937 18.56132813 8.54296875 19.81640625 C12 28.8570973 12 28.8570973 12 30 C4.41 30 -3.18 30 -11 30 C-7.625 18.75 -7.625 18.75 -5.95703125 14.6484375 C-5.60576172 13.77832031 -5.25449219 12.90820312 -4.89257812 12.01171875 C-4.53615234 11.14160156 -4.17972656 10.27148438 -3.8125 9.375 C-3.44447266 8.46621094 -3.07644531 7.55742188 -2.69726562 6.62109375 C-1.80216521 4.41240441 -0.9030465 2.20544952 0 0 Z " fill="#15B9D9" transform="translate(781,629)"/>
<path d="M0 0 C20.1 0 20.1 0 28.0625 6.5 C29.7132427 8.62999058 30.98627287 10.51176068 32 13 C31.071875 12.5978125 31.071875 12.5978125 30.125 12.1875 C20.8218208 8.6522919 13.39642642 7.74260189 3 7 C3 23.17 3 39.34 3 56 C2.01 56 1.02 56 0 56 C0 37.52 0 19.04 0 0 Z " fill="#460505" transform="translate(1298,622)"/>
<path d="M0 0 C20.1 0 20.1 0 28.0625 6.5 C29.7132427 8.62999058 30.98627287 10.51176068 32 13 C31.071875 12.5978125 31.071875 12.5978125 30.125 12.1875 C20.8218208 8.6522919 13.39642642 7.74260189 3 7 C3 23.17 3 39.34 3 56 C2.01 56 1.02 56 0 56 C0 37.52 0 19.04 0 0 Z " fill="#460505" transform="translate(544,622)"/>
<path d="M0 0 C0.66 0 1.32 0 2 0 C4.52712184 12.66249349 6.74887743 25.33519151 8.60449219 38.11474609 C9.33522246 43.06364367 10.1649398 47.85699699 11.45556641 52.6965332 C12.65994116 57.79217257 13.43458653 62.98187121 14.28710938 68.14624023 C14.6260995 70.19414231 14.97291074 72.24061942 15.3203125 74.28710938 C15.536875 75.58841797 15.7534375 76.88972656 15.9765625 78.23046875 C16.17330566 79.41020264 16.37004883 80.58993652 16.57275391 81.80541992 C17 85 17 85 17 90 C11.39 90 5.78 90 0 90 C0 87.69 0 85.38 0 83 C4.29 83 8.58 83 13 83 C12.67725098 81.09379883 12.35450195 79.18759766 12.02197266 77.22363281 C10.94817473 70.88141104 9.8745195 64.53916513 8.80095863 58.19690323 C8.15091477 54.35667838 7.50081603 50.51646285 6.85058594 46.67626953 C6.2215084 42.96098822 5.59258276 39.24568122 4.96375656 35.53035736 C4.72542964 34.1223944 4.48705064 32.71444026 4.24861526 31.30649567 C3.69919155 28.06209249 3.15088223 24.81751935 2.60577393 21.5723877 C2.21066315 19.24232889 1.80704729 16.9136916 1.39373779 14.58679199 C1.21014709 13.53946899 1.0265564 12.492146 0.83740234 11.41308594 C0.67525238 10.50782166 0.51310242 9.60255737 0.34603882 8.66986084 C-0.03185702 5.75420729 -0.05774799 2.93683023 0 0 Z " fill="#4B0101" transform="translate(192,612)"/>
<path d="M0 0 C0.99 0 1.98 0 3 0 C3 5.61 3 11.22 3 17 C-10.86 17 -24.72 17 -39 17 C-39 14.69 -39 12.38 -39 10 C-26.13 10 -13.26 10 0 10 C0 6.7 0 3.4 0 0 Z " fill="#420000" transform="translate(1215,685)"/>
<path d="M0 0 C0.99 0 1.98 0 3 0 C3 5.61 3 11.22 3 17 C-10.86 17 -24.72 17 -39 17 C-39 14.69 -39 12.38 -39 10 C-26.13 10 -13.26 10 0 10 C0 6.7 0 3.4 0 0 Z " fill="#420000" transform="translate(881,685)"/>
<path d="M0 0 C13.125 -0.53571429 13.125 -0.53571429 16.75 1.5625 C19.70169625 4.76017094 20.07586222 6.67585374 20 11 C18.8069261 13.82570134 17.86427124 15.42315384 15.30859375 17.12890625 C12.20719074 18.299148 9.55388072 18.19107761 6.25 18.125 C3.15625 18.063125 3.15625 18.063125 0 18 C0 12.06 0 6.12 0 0 Z " fill="#501515" transform="translate(944,622)"/>
<path d="M0 0 C0.99 0 1.98 0 3 0 C3 5.61 3 11.22 3 17 C-7.56 17 -18.12 17 -29 17 C-29 19.64 -29 22.28 -29 25 C-30.32 25 -31.64 25 -33 25 C-33 20.05 -33 15.1 -33 10 C-22.11 10 -11.22 10 0 10 C0 6.7 0 3.4 0 0 Z " fill="#470909" transform="translate(268,612)"/>
<path d="M0 0 C0.99 0 1.98 0 3 0 C3 21.78 3 43.56 3 66 C2.01 66 1.02 66 0 66 C0 44.22 0 22.44 0 0 Z " fill="#420000" transform="translate(1190,612)"/>
<path d="M0 0 C0.99 0 1.98 0 3 0 C3 21.78 3 43.56 3 66 C2.01 66 1.02 66 0 66 C0 44.22 0 22.44 0 0 Z " fill="#420000" transform="translate(856,612)"/>
<path d="M0 0 C2.75330589 4.12995883 3.24655743 6.01088923 2.65625 11.00390625 C1.21969127 17.56248093 -1.5056988 23.78331659 -4 30 C-6.31 30 -8.62 30 -11 30 C-9.0173911 22.93487572 -6.592956 16.16273165 -3.8125 9.375 C-3.44447266 8.46621094 -3.07644531 7.55742188 -2.69726562 6.62109375 C-1.80216521 4.41240441 -0.9030465 2.20544952 0 0 Z " fill="#490909" transform="translate(781,629)"/>
<path d="M0 0 C0.33 0 0.66 0 1 0 C0.75862069 7.24137931 0.75862069 7.24137931 -2.5 10.5 C-7.02047618 12.43734693 -10.11431096 12.29610237 -15 12 C-15 8.37 -15 4.74 -15 1 C-13.06257659 0.97296619 -11.12504521 0.95358875 -9.1875 0.9375 C-8.10855469 0.92589844 -7.02960937 0.91429687 -5.91796875 0.90234375 C-3 1 -3 1 0 2 C0 1.34 0 0.68 0 0 Z " fill="#15B9D9" transform="translate(963,628)"/>
<path d="M0 0 C0 1.65 0 3.3 0 5 C-1.98 5 -3.96 5 -6 5 C-6.33 6.32 -6.66 7.64 -7 9 C-5.68 9 -4.36 9 -3 9 C-3.33 10.32 -3.66 11.64 -4 13 C-8.62 13 -13.24 13 -18 13 C-18.33 11.35 -18.66 9.7 -19 8 C-20.98 8.33 -22.96 8.66 -25 9 C-23.84826645 6.53199953 -22.95216435 4.95216435 -21 3 C-18.875 3.375 -18.875 3.375 -17 4 C-17 4.66 -17 5.32 -17 6 C-16.34 5.67 -15.68 5.34 -15 5 C-15.33 4.01 -15.66 3.02 -16 2 C-15.01 2.33 -14.02 2.66 -13 3 C-11.8125 5.5625 -11.8125 5.5625 -11 8 C-10.67 7.67 -10.34 7.34 -10 7 C-10 6.34 -10 5.68 -10 5 C-6.95062363 1.40609214 -4.69358033 0 0 0 Z " fill="#98B0CF" transform="translate(159,417)"/>
<path d="M0 0 C-4.12110156 1.6975522 -7.79354667 0.18455841 -11.875 -0.9375 C-23.51696827 -3.892251 -34.28640703 -3.67739268 -46 -1 C-45.34 -0.34 -44.68 0.32 -44 1 C-44.99 1.24234375 -45.98 1.4846875 -47 1.734375 C-54.14024046 3.53095746 -60.50717274 5.43531053 -67 9 C-67.66 9 -68.32 9 -69 9 C-69 8.01 -69 7.02 -69 6 C-47.53681458 -5.62177091 -23.04441764 -9.56560732 0 0 Z " fill="#5BD2EE" transform="translate(141,361)"/>
<path d="M0 0 C3.12259437 3.12259437 3.14293342 6.71466712 4 11 C-1.94 11 -7.88 11 -14 11 C-14.66 8.69 -15.32 6.38 -16 4 C-8.08 3.505 -8.08 3.505 0 3 C0 2.01 0 1.02 0 0 Z " fill="#450000" transform="translate(824,691)"/>
<path d="M0 0 C3.41334022 1.0444367 4.10769236 2.18357142 5.95703125 5.3359375 C6.58872979 6.67614489 7.20683889 8.02282637 7.8125 9.375 C8.13669922 10.04789062 8.46089844 10.72078125 8.79492188 11.4140625 C10.52916332 15.18705887 11.03373408 17.08048517 10 21 C10.49578913 22.82848725 10.99236317 24.65676577 11.49316406 26.48388672 C12.59048325 31.93136821 12.38068277 37.52642033 12.375 43.0625 C12.37628906 44.34987061 12.37757813 45.63724121 12.37890625 46.96362305 C12.27599925 56.21882122 11.34804204 64.3459092 8 73 C6.58884715 69.17773832 7.4645077 66.44149598 8.4375 62.5625 C12.79702146 42.8202013 10.34071287 22.38080345 1.171875 4.40625 C0 2 0 2 0 0 Z " fill="#3C96BF" transform="translate(204,382)"/>
<path d="M0 0 C7.30829277 7.30829277 6.37369296 23.42250732 6.375 32.875 C6.37717529 34.59589844 6.37717529 34.59589844 6.37939453 36.3515625 C6.26968948 44.59546578 6.26968948 44.59546578 4 48 C3.67 47.34 3.34 46.68 3 46 C2.34 46.66 1.68 47.32 1 48 C1.16113281 46.97519531 1.32226562 45.95039063 1.48828125 44.89453125 C2.28122059 38.51312385 2.18423238 32.10836444 2.1875 25.6875 C2.19974609 24.43259766 2.21199219 23.17769531 2.22460938 21.88476562 C2.23636848 14.36285852 1.67343286 7.33940156 0 0 Z " fill="#15B9D9" transform="translate(213,400)"/>
<path d="M0 0 C5.07002952 0.78348153 9.94605857 1.975246 14.90234375 3.28125 C27.83962863 6.28309164 40.79130294 5.7140315 53.6328125 2.75390625 C57.07644039 1.98288516 60.50233067 1.45834598 64 1 C57.36565034 7.63434966 44.06865524 7.21529571 35.36889648 7.22802734 C30.76647318 7.1773607 26.16579489 7.08927493 21.56518555 6.94995117 C18.87872265 6.87505826 18.87872265 6.87505826 16 8 C13.38464596 7.34183143 10.91920789 6.61560456 8.375 5.75 C7.68148437 5.53214844 6.98796875 5.31429687 6.2734375 5.08984375 C4.2734375 4.421875 4.2734375 4.421875 1 3 C0.67 2.01 0.34 1.02 0 0 Z " fill="#4192BA" transform="translate(90,512)"/>
<path d="M0 0 C1.32 0 2.64 0 4 0 C4 8.91 4 17.82 4 27 C2.68 27 1.36 27 0 27 C0 18.09 0 9.18 0 0 Z " fill="#520000" transform="translate(354,612)"/>
<path d="M0 0 C4.1845147 6.27677205 4.32676103 13.42484279 4.5625 20.75 C4.62266558 22.41159399 4.68634103 24.07306544 4.75390625 25.734375 C4.77783447 26.45850586 4.8017627 27.18263672 4.82641602 27.92871094 C4.9352964 30.01611028 4.9352964 30.01611028 5.57104492 32.02563477 C6.33443756 35.53932646 4.82395994 38.84991731 3.75 42.1875 C3.53214844 42.92419922 3.31429687 43.66089844 3.08984375 44.41992188 C2.49374063 46.31455372 1.75551237 48.16310866 1 50 C-0.485 50.495 -0.485 50.495 -2 51 C-1.566875 49.14375 -1.566875 49.14375 -1.125 47.25 C2.4144451 31.04439778 2.37541671 16.3309899 0 0 Z " fill="#5BD2EE" transform="translate(181,414)"/>
<path d="M0 0 C0 0.99 0 1.98 0 3 C-7.29913494 4.94183085 -14.02997295 5.27284169 -21.5625 5.1875 C-22.64724609 5.18685547 -23.73199219 5.18621094 -24.84960938 5.18554688 C-30.63514462 5.15393193 -36.30312767 5.06350649 -42 4 C-42.33 3.34 -42.66 2.68 -43 2 C-42.21987549 2.01571045 -41.43975098 2.0314209 -40.63598633 2.04760742 C-37.02823428 2.11078907 -33.42059925 2.1492516 -29.8125 2.1875 C-27.97268555 2.22520508 -27.97268555 2.22520508 -26.09570312 2.26367188 C-18.51854894 2.32364935 -11.83379442 1.56152815 -4.51831055 -0.44799805 C-2 -1 -2 -1 0 0 Z " fill="#15B9D9" transform="translate(151,516)"/>
<path d="M0 0 C3.96 0 7.92 0 12 0 C12 2.31 12 4.62 12 7 C8.04 7 4.08 7 0 7 C0 4.69 0 2.38 0 0 Z " fill="#490505" transform="translate(1222,622)"/>
<path d="M0 0 C3.96 0 7.92 0 12 0 C12 2.31 12 4.62 12 7 C8.04 7 4.08 7 0 7 C0 4.69 0 2.38 0 0 Z " fill="#490505" transform="translate(1080,622)"/>
<path d="M0 0 C3.96 0 7.92 0 12 0 C12 2.31 12 4.62 12 7 C8.04 7 4.08 7 0 7 C0 4.69 0 2.38 0 0 Z " fill="#490505" transform="translate(278,622)"/>
<path d="M0 0 C0.66 0.33 1.32 0.66 2 1 C1.82421875 2.80859375 1.82421875 2.80859375 1 5 C-1.29296875 6.59765625 -1.29296875 6.59765625 -4.1875 8.0625 C-5.67830078 8.82626953 -5.67830078 8.82626953 -7.19921875 9.60546875 C-8.58560547 10.29576172 -8.58560547 10.29576172 -10 11 C-11.155 11.61875 -12.31 12.2375 -13.5 12.875 C-16 14 -16 14 -19 14 C-18 11 -18 11 -15.48828125 9.5703125 C-14.44027344 9.09335937 -13.39226562 8.61640625 -12.3125 8.125 C-7.55194091 5.85536516 -3.82250585 3.61014442 0 0 Z " fill="#36C7E5" transform="translate(169,490)"/>
<path d="M0 0 C0.66 0 1.32 0 2 0 C1.67 2.31 1.34 4.62 1 7 C2.32 7 3.64 7 5 7 C5 7.66 5 8.32 5 9 C4.01 9.33 3.02 9.66 2 10 C1.26676204 12.01508358 1.26676204 12.01508358 1 14 C-0.65 14 -2.3 14 -4 14 C-4.33 13.34 -4.66 12.68 -5 12 C-4.34 11.67 -3.68 11.34 -3 11 C-2.34848903 8.94824595 -2.34848903 8.94824595 -1.9375 6.5625 C-1.0839895 2.167979 -1.0839895 2.167979 0 0 Z " fill="#15B9D9" transform="translate(147,395)"/>
<path d="M0 0 C2.90746681 2.90746681 3.24706224 6.42030927 4.125 10.3125 C4.30675781 11.07240234 4.48851562 11.83230469 4.67578125 12.61523438 C5.56848902 16.47804129 6.23912172 20.00666724 6 24 C5.67 24 5.34 24 5 24 C4.67 26.97 4.34 29.94 4 33 C3.67 33 3.34 33 3 33 C2.98018066 32.39115967 2.96036133 31.78231934 2.93994141 31.1550293 C2.54996209 15.45492899 2.54996209 15.45492899 0 0 Z " fill="#15B9D9" transform="translate(213,400)"/>
<path d="M0 0 C2.125 0.375 2.125 0.375 4 1 C4.93423645 4.01031744 5.04449911 4.86650268 4 8 C4.66 8 5.32 8 6 8 C6 8.66 6 9.32 6 10 C4.68 9.67 3.36 9.34 2 9 C2 7.68 2 6.36 2 5 C0.02 5.33 -1.96 5.66 -4 6 C-2.84826645 3.53199953 -1.95216435 1.95216435 0 0 Z " fill="#91A9CC" transform="translate(138,420)"/>
<path d="M0 0 C3.44216672 2.6598561 3.99504674 5.90288286 5 10 C4.34 10 3.68 10 3 10 C3 14.95 3 19.9 3 25 C2.67 25 2.34 25 2 25 C1.93941406 23.69804688 1.87882812 22.39609375 1.81640625 21.0546875 C1.73195438 19.32811601 1.64730874 17.601554 1.5625 15.875 C1.52318359 15.0190625 1.48386719 14.163125 1.44335938 13.28125 C1.21843598 8.78278208 0.86459117 4.43193793 0 0 Z " fill="#7C4D4D" transform="translate(1349,634)"/>
<path d="M0 0 C3.44216672 2.6598561 3.99504674 5.90288286 5 10 C4.34 10 3.68 10 3 10 C3 14.95 3 19.9 3 25 C2.67 25 2.34 25 2 25 C1.93941406 23.69804688 1.87882813 22.39609375 1.81640625 21.0546875 C1.73195438 19.32811601 1.64730874 17.601554 1.5625 15.875 C1.52318359 15.0190625 1.48386719 14.163125 1.44335938 13.28125 C1.21843598 8.78278208 0.86459117 4.43193793 0 0 Z " fill="#7C4D4D" transform="translate(595,634)"/>
<path d="M0 0 C-0.33 1.32 -0.66 2.64 -1 4 C-0.01 4 0.98 4 2 4 C2.33 4.99 2.66 5.98 3 7 C5.00016466 8.20882096 5.00016466 8.20882096 7 9 C5.02 9 3.04 9 1 9 C0.67 8.34 0.34 7.68 0 7 C-2.3140622 6.26924352 -4.64828869 5.59861742 -7 5 C-2.25 0 -2.25 0 0 0 Z " fill="#D9DCE8" transform="translate(80,436)"/>
<path d="M0 0 C0.33 0 0.66 0 1 0 C1.66 4.29 2.32 8.58 3 13 C2.01 13.33 1.02 13.66 0 14 C-0.19393875 11.85473901 -0.37998676 9.70876323 -0.5625 7.5625 C-0.71912109 5.77005859 -0.71912109 5.77005859 -0.87890625 3.94140625 C-0.91886719 2.97074219 -0.95882812 2.00007812 -1 1 C-0.67 0.67 -0.34 0.34 0 0 Z " fill="#4A0C0C" transform="translate(199,647)"/>
<path d="M0 0 C0.66 0 1.32 0 2 0 C2.24234375 0.55429687 2.4846875 1.10859375 2.734375 1.6796875 C3.06953125 2.40414063 3.4046875 3.12859375 3.75 3.875 C4.07484375 4.59429687 4.3996875 5.31359375 4.734375 6.0546875 C6.21929686 8.3370674 7.50415408 9.00375898 10 10 C10 10.33 10 10.66 10 11 C8.35 11 6.7 11 5 11 C4.16151196 9.54462432 3.32936066 8.08559627 2.5 6.625 C1.80390625 5.40683594 1.80390625 5.40683594 1.09375 4.1640625 C0 2 0 2 0 0 Z " fill="#15B9D9" transform="translate(155,432)"/>
<path d="M0 0 C3.37705625 0.53725895 6.696686 1.11064623 10 2 C9.67 2.99 9.34 3.98 9 5 C6.03 4.01 3.06 3.02 0 2 C0 1.34 0 0.68 0 0 Z " fill="#30A2CF" transform="translate(90,512)"/>
<path d="M0 0 C0.66 0.33 1.32 0.66 2 1 C1.071875 2.1446875 1.071875 2.1446875 0.125 3.3125 C-2.05597052 5.99625809 -2.05597052 5.99625809 -4 9 C-4.8125 7.3125 -4.8125 7.3125 -5 5 C-2.5625 2.25 -2.5625 2.25 0 0 Z " fill="#DDE9F6" transform="translate(83,388)"/>
<path d="M0 0 C-2.93828597 2.50298434 -5.17902761 3.46930939 -9 4 C-8 1 -8 1 -6.1875 -0.25 C-3.66056586 -1.11637742 -2.47778006 -0.88492145 0 0 Z " fill="#31CEED" transform="translate(159,500)"/>
<path d="M0 0 C0.66 0.33 1.32 0.66 2 1 C1.42655063 3.86724686 1.1385485 4.8614515 -1 7 C-1.99 7 -2.98 7 -4 7 C-4 5.68 -4 4.36 -4 3 C-2.68 3 -1.36 3 0 3 C0 2.01 0 1.02 0 0 Z " fill="#98B6D4" transform="translate(160,390)"/>
<path d="M0 0 C7.75 -0.125 7.75 -0.125 10 1 C10 1.99 10 2.98 10 4 C6.7 3.01 3.4 2.02 0 1 C0 0.67 0 0.34 0 0 Z " fill="#31CEED" transform="translate(141,350)"/>
<path d="M0 0 C2.99324263 1.0975223 3.84610901 1.67682892 5.25 4.625 C5.4975 5.40875 5.745 6.1925 6 7 C5.01 7.33 4.02 7.66 3 8 C0 2.25 0 2.25 0 0 Z " fill="#2EA4D1" transform="translate(204,382)"/>
<path d="M0 0 C1.32 0 2.64 0 4 0 C4.66 1.32 5.32 2.64 6 4 C5.34 4.66 4.68 5.32 4 6 C2.68 4.02 1.36 2.04 0 0 Z " fill="#CBCBDF" transform="translate(61,430)"/>
</svg>